<svg xmlns="http://www.w3.org/2000/svg" viewBox="0 0 1000 1000"><defs><style>.cls-1{fill:#141414;}</style></defs><g id="Layer_2" data-name="Layer 2"><path class="cls-1" d="M998,460.6C980.78,292.73,842.56,138.1,641.9,131.46c-102.6-3.39-192.11,32.1-266.63,103.31-8,7.6-15.46,10.95-26.36,9.23-23.74-3.73-47.56-2.73-71.42-.11C106.47,262.65-18.79,420.41,2.32,590.7c20,161.34,151.31,277.71,313.79,278q79.14.15,158.28,0,79.89,0,159.78,0a354.41,354.41,0,0,0,84.18-10.52C896.1,814.91,1017.18,647.4,998,460.6ZM217.61,779C123.29,737.9,61.78,635.23,72.39,533.58c11.3-108.25,87.8-193.05,192-214.59,86.86-17.95,159.94,7.28,222.12,68.2,32,31.3,63.33,63.23,94.69,95.14,13.95,14.2,14.27,33.69,1.57,46.64-14.06,14.35-33.57,14.42-48.82-.68-32.18-31.85-64-64.09-96-96.11C384,378.09,303.2,365.11,234.29,399.36c-65.08,32.35-105.12,105.53-95.45,174.44C150,653.49,204.62,713.06,280.61,727.05c15.51,2.86,31.71,2.67,47.59,2.65,10.09,0,18.09,2.3,25.45,9.56C373,758.39,393,776.94,412.72,795.71,346.22,797,280.47,806.37,217.61,779Zm471,14.76c-102,18.4-192.07-4.67-266.28-80.67-45.86-47-93.3-92.38-139.86-138.67-12.37-12.29-14.74-25.44-8.14-39.26a34,34,0,0,1,35.35-19.5c10.62,1.23,17.91,7.87,25,15,44.59,44.77,88.87,89.86,134,134.12,69,67.72,151.16,83.4,241,53.9,98.21-32.24,163.65-140.57,151.15-243.44-20.24-166.67-200.22-257-346-173.41-9.32,5.35-15.36,4.77-23.84-1.15-15.41-10.74-31.88-20-49.4-30.74,66.64-53.51,141.26-76.19,224.07-65.66C799.9,221.35,898.29,314.68,924.84,446.62,956.34,603.14,846.68,765.22,688.57,793.75Z"/></g></svg>