<svg xmlns="http://www.w3.org/2000/svg" viewBox="0 0 1000 1000"><defs><style>.cls-1{fill:#33373f;}</style></defs><g id="Layer_2" data-name="Layer 2"><path class="cls-1" d="M748.74,68.11C744.46,36.69,730.37,12.3,699.56,0h-14a30.48,30.48,0,0,0-14.27,5.74,234.24,234.24,0,0,0-22,18.41c-15,14.58-28.6,30.39-42.06,46.34-2,2.34-4.39,4.63-4.68,8-1.85-.29-2.78,1.19-3.71,2.38-11.46,14.31-22.85,28.71-33.66,43.52-1.09,1.48-2.24,3-1.6,5-2.89.43-4.09,2.93-5.56,4.91-12.88,17.36-24.95,35.29-37.23,53.08-1.38,2-3,4-2.34,6.69-2.72,0-3.71,2.32-4.86,4.14-8.2,13-16.75,25.64-24.6,38.79-1,1.77-2.25,3.51-1.85,5.71-2.2.14-2.63,1.44-2.24,3.27h-.11c-2.9.83-3.8,3.52-5.11,5.7-26.09,43-50.39,87-72.4,132.32-1.07,2.2-2.58,4.39-1.49,7-2.29-.07-3,1.92-3.7,3.49-4.09,9.68-9,19-13.09,28.63-.77,1.85-1.53,3.7-.06,5.56,0,.06.06.11.09.16l-.41-.18c-3.09,1.1-3.77,4-4.87,6.57-4.92,11.41-9.76,22.85-13.8,34.6-2.54,7.36-6.49,14.28-6.93,22.29,0,.07.05.14.07.21-2.66.93-2.72,3.86-3.48,6q-8.79,25-15.43,50.73c-.82,3.12-2.48,6.14-1.67,9.56.13.22.27.43.41.63a5.54,5.54,0,0,0-1.65,1.62,5.62,5.62,0,0,0-.85,2.16c-2.78,11.45-6.07,22.78-7.27,34.56l1,1.8c-.32,1.51-.65,3-.93,4.52-2,12.77-5.14,25.38-5.62,38.37l-.31.15c-2.54,2.28-2.65,5.36-2.86,8.44-.33,5.05-1.15,10-1.9,15.8-10-10.44-19.66-20-31.36-27.06-2.52-1.51-5.61-5.08-8-2.78-3,2.84,1,5.86,2.65,8.39,12.13,18.8,23.43,38,30,59.56.68,2.2,1.44,4.42,3.49,5.81-2.4,4.77,1,9.26,1.28,13.89s-1.07,6.18-5.66,6.16c-10.68,0-20.68-3.17-30.77-6-2.19-.62-5.16-2.45-6.48.21-1.22,2.35,1.58,4.18,3.27,5.82a50.84,50.84,0,0,0,4.11,3.24c6.87,5.42,14.52,9.53,23.15,13.73-15.12,4.44-27.57,12-39.52,20.45-2.06,1.47-5.4,3.21-4,5.92s4.69.72,7.1,0c1-.32,2.05-.77,3.09-1.1,13.16-4.08,26.27-8.17,40.38-7.4,8.86.47,8.85.25,6.09,9-1.75,5.55-5.36,10.6-4.89,16.8l.38.33c-2.85,1.55-3.22,4.63-4.12,7.32q-13.11,38.94-26,78.1c-1.35,4.13-2.9,8.25-2.7,12.72l.15.44c-4,4.24-5.67,9.18-4,15.18l.16.27a7.89,7.89,0,0,0-1.53-.26c-3,6.06-6.25,12-5.09,19.15l-.33,0a7.84,7.84,0,0,0-3.19,4.77c-6.6,23.15-15.49,45.6-20,69.35A1.76,1.76,0,0,0,250,1000h5.25c3.87-3.17,7.7-6.48,9.26-11.41,6.27-20.19,12.39-40.43,18.57-60.66a115.74,115.74,0,0,0,6.14-18.51c1.39-4.83,4.06-9.26,4.2-14.46a30.94,30.94,0,0,0,2.06-4.06q16-47.82,31.83-95.66l25.36-72.09c7.24-17.69,13.73-35.66,19.69-53.82,2.77-7,5.73-14,8.43-21.09q11.52-30.11,22.92-60.28,13-32.22,26.06-64.45,13.13-30.84,26.24-61.7,9.09-20.37,18.18-40.69l50.1-105q11.63-22.32,23.26-44.63c4.93-8.9,10-17.72,14.74-26.71,4.32-8.18,9.94-15.66,13.08-24.47L616,154.68c5.65-7.65,11.41-15.21,16.12-23.49,9.9-11.81,17.71-25.25,28.79-36.18l-23.78,36c-6.88,10.27-14,20.37-19.64,31.48A750,750,0,0,0,579.42,228c-10,16.67-19,33.93-27.44,51.43a460.4,460.4,0,0,0-21,42c-7.23,12.39-12.85,25.57-19,38.51-9.35,19.81-18.95,39.52-27,59.93-9.26,18.37-16.95,37.42-24.76,56.43-8.43,19-16.67,38.16-23.71,57.76q-14.29,33-26.61,66.82c-1.94,4.79-4.07,9.52-5.82,14.37-7.57,21-16.23,41.67-22.92,63.06-4.74,10.18-8.28,20.89-11.57,31.64-7.5,17.73-12.56,36.34-19.55,54.24-2.18,5.56-1.85,9.21,3.85,12,3.13,1.53,5.14,4.63,7.48,7.22,5.44,6,8.86,13.5,14.41,21-1.24-16.41-8.06-28.88-18.71-40.47,14.11,0,26.77.4,39.31-1.5,17.26-2.57,34.16-6.34,49.14-15.95,14.72-5.71,36.58-29.08,38.58-41.16-12,13.34-33.4,16.94-45.17,13.82,36.76-15.14,63.81-39.6,79.81-75.59a60.71,60.71,0,0,0-8.18,6.09A115.33,115.33,0,0,1,476,670.37c-20.92,8-42.5,8.56-64.38,5.22.53-.33,1-.88,1.62-1,28.13-5,52.77-17.67,75.7-34.26,22.59-15,41-34.1,56.19-56.48a300.39,300.39,0,0,0,31.59-55.17c12.68-25.47,22.34-52.1,31.23-79.57-6.7,2.45-12.48,5.06-18.52,6.61-5.19,1.33-10.29,4.63-16,2.23,20.65-7.89,36.27-22.11,49.25-39.52,5.65-7.57,10.93-15.42,15.09-25.51-5.56,3-9.78,5.45-14.19,7.55A103,103,0,0,1,610.31,406c-4.44,1.42-8.84,3.63-13.95,2.78,48.5-21.72,63.57-66,76.92-111.53-12.78,7-26.22,11.11-40,14.27-1.78.4-3.7,1.78-5.17-.58,17.95-7.82,33.68-18.52,44.82-35,7.48-8.57,13.09-18.42,18.89-28.09,7.67-12.79,15.8-25.37,21.3-39.36A235.7,235.7,0,0,0,728.63,177c7.78-18.65,15.33-37.4,17.69-57.72A141.93,141.93,0,0,0,748.74,68.11Z"/></g></svg>