<svg xmlns="http://www.w3.org/2000/svg" viewBox="0 0 1000 1000"><defs><style>.cls-1{fill:#563f7e;}</style></defs><g id="Layer_2" data-name="Layer 2"><path class="cls-1" d="M1000,167.72C1000,74.3,925.93,0,832.79,0Q502,0,171.16,0C72.8,0,0,72.59.05,170.61V500.08q0,166.09,0,332.2c0,93.41,74,167.7,167.17,167.71q332.17,0,664.36,0C926,1000,1000,926.22,1000,832.13Q1000,499.92,1000,167.72ZM632.81,789.6a306.06,306.06,0,0,1-82.23,11.18c-88.84.17-177.68-.12-266.52.31-10.22,0-12.9-2.48-12.88-12.77q.48-278.84,0-557.68c0-11.68,3.55-14.24,14.61-14.19,89.75.43,179.5.05,269.25.37,24.58.09,49,2.64,72.79,9.67,71.65,21.16,107.87,75.49,100.45,149.8-4.73,47.38-28.38,81.5-69.71,104.1-3.39,1.85-7.91,2.27-9.91,7.54,41.86,10,73.44,33.13,91.19,72.74C784.72,660.79,738.21,760.1,632.81,789.6Z"/><path class="cls-1" d="M476.56,716.46c-30,0-60.1-.31-90.13.2-8.94.16-12.59-1.36-12.49-11.56.55-52.81.47-105.62.06-158.43-.07-8.86,2.23-11.39,11.23-11.33,58.72.41,117.46-.31,176.18.42,33.52.41,63.86,10.75,79.87,42.71,16.45,32.86,15.74,67.42-3.15,99.29-16.54,27.92-44.41,37.82-75.53,38.54C533.94,717,505.24,716.45,476.56,716.46Z"/><path class="cls-1" d="M467.32,301.75c29.58,0,59.31-1.89,88.72.4,55.46,4.32,73.74,35.35,69,90.18-3.53,40.84-35.9,68.12-79.7,68.7-53.73.72-107.48,0-161.22.33-7.64,0-10.14-2-10.09-9.89q.51-70.37,0-140.74c-.05-7.69,2.08-10.18,9.94-10.05,27.77.44,55.56.17,83.34.17Z"/></g></svg>