<svg xmlns="http://www.w3.org/2000/svg" viewBox="0 0 1000 1000"><defs><style>.cls-1{fill:none;}.cls-2{fill:#0f131e;}.cls-3{fill:#fff;}.cls-4{fill:#3f4550;}.cls-5{fill:#505868;}</style></defs><g id="Layer_2" data-name="Layer 2"><rect class="cls-1" y="32.61" width="1000" height="934.78"/><path class="cls-2" d="M993.66,350.46C985.94,331.1,972,317.37,955.22,306,922.06,283.6,889,261,855.85,238.6c-37.59-25.33-74.34-52-112.79-76-2.34-1.9-4.55-4-7-5.67q-69.45-47.41-139-94.72c-58.27-39.58-136-39.51-194.17.09-12.91,8.8-25.91,17.53-38.8,26.38Q313.61,123.31,263.23,158q-56.36,38.07-112.68,76.12Q97.08,270.33,43.71,306.69c-19.26,13.13-34.49,29.5-40.62,53-4.59,9.13-3.41,18.55-1,27.86C7.9,409.75,21.39,426,40.38,437.93c9.76,5.7,18.16,13.8,29,17.62.73,2.3,3,3.64,5,4.89,13.81,8.85,26.5,19.27,40,28.46,73.71,48.59,146.16,99.12,219,149,24.47,17.57,48.78,35.62,74.8,50.55,64,36.71,128,34.88,190.67-4.3,22-13.73,42.31-29.94,64.06-44.05,21-14.52,42.34-28.6,63.39-43,54-37.1,107.9-74.5,162.68-110.52,9.82-7.78,20.18-14.72,30.45-21.83,2.87-2,6.94-3.34,7.71-7.23,12.65-3.68,21.66-13.85,33.05-19.78a93.22,93.22,0,0,0,29.33-30.34C1000.41,389.27,1004.36,370.28,993.66,350.46ZM627,470c-21.23,14.15-42.54,28.23-63.36,43-7.8,5.53-13.8,5.3-21.46-.16-21.4-15.27-44-28.72-65.59-43.7-3.65-2.53-7-6.12-12.14-5.4h-.32c.59-1.44-.07-3.17-1.74-5.1-2.8-3.21-6.5-5.3-10-7.64-56.53-38.3-113.29-76.31-169.37-115.33-9.91-6.88-9.91-6.74.32-13.78,29.87-20.52,60.46-40,89.72-61.46C389,248.79,406,239.78,425,234.53c40.66-11.31,79-8.34,113.2,19.24,17.19,13.87,22.71,35.53,14.35,53.66-2.28,5-9.51,10.24-5.11,15.05,4.14,4.54,10.41-1.62,15.57-3.47,49.16-17.65,94.4-12.71,133.22,24.9,19.27,18.66,20.34,41.36,5.89,63.94-11.1,17.34-27.25,28.71-43.3,40.41-5.24,3.82-11,6.88-15.86,11.25-2.19,2-4.49,4.33-3.45,6.42a1.23,1.23,0,0,0-.27,0C633.93,463.47,630.62,467.62,627,470Z"/><path class="cls-3" d="M639.25,465.93c-26.5,15.4-50.9,34-76.16,51.28-6.87,4.67-11.65,5.46-19,.32-26.2-18.43-53-35.94-79.63-53.82Q400,419.39,335.42,375.06c-22-15.08-44-30.06-67.42-46,16.64-11.35,32-22.28,47.75-32.49C345.46,277.28,372.33,253.1,405,239c45.17-19.55,90.27-21.19,131.67,10.09,27.09,20.47,29.81,44.4,9.13,74,16.91-7.18,32.25-13.3,48.78-15.24,40-4.7,75.32,5.05,104.3,34.48,18.46,18.74,21.09,41.29,7.56,64.2-10.64,18-26.66,30.33-43.19,42.17C655.22,454.38,647.24,460.17,639.25,465.93Z"/><path class="cls-4" d="M993.65,477.79c-4.08-10-10.33-18.6-16.54-27.23-2.36-6.63-6.55-10.4-13.6-9.8l-4.68-4.54c-11.76,4-19.86,14.4-31.57,18.48-11.43,12-27.82,17.37-38.83,29.92-4.81.51-8.07,4.08-11.75,6.6q-66.82,45.4-133.45,91-40.35,27.57-80.68,55.23c-2.9,1.79-5.89,3.45-8.69,5.38-21.62,14.8-42.57,30.73-64.92,44.23-36.37,22-76.39,28.07-118,21.56-17.87-2.8-36-6.76-51.53-16.7-28.79-18.36-56.9-37.82-85.3-56.81-49.54-34-99-68.15-148.72-101.85-23.25-15.75-45.66-32.84-70.34-46.39-13.9-13.33-31.56-21.51-45.67-34.55-10.5-3.63-18-12.43-28.08-16.79-2.71,2.43-6.81,3.15-8.39,6.95-4.82-.65-7,3.15-9.32,6.92-7.32,9.48-13.8,19.46-18.32,30.67-4.39,6.71-5.54,14.17-5,22,2.15,28,16.78,47.83,39.44,62.49,3.89,2.29,7.11,5.51,10.87,7.92,9.86,4.53,17.55,13,28.07,16.37,1,3.57,4.7,4.77,7.38,6.69,9.85,7.13,20.21,13.52,30,20.73C140.93,635,168,650.3,192.29,669.57c41.27,25.2,80.11,54,120.24,81,5.68,3.82,11.18,8,18.35,8.47l1,.56c3.05,2.53,6.09,5,9.15,7.57,2.3,4.73,6.66,7.41,10.63,10.24,12.45,8.82,25.25,17.16,37.55,26.15,35.51,26,74.59,38.39,118.64,36.36,29.49-1.37,57.15-7.37,82.3-23.42q28-17.85,55-37.26c6.12-4.38,13.1-7.92,17.58-14.45,2.05-1.67,4.11-3.31,6.16-5,.59-.33,1.18-.6,1.76-1,6.23-1.07,11-5,16.06-8.34,47-31.61,93.63-63.8,140.85-95.11,13.88-9.75,28-19.06,42-28.77,2.88-2,6.89-3.37,7.69-7.24,21.91-11.56,41-27.54,62.08-40.42,7.21-5.14,14.47-10.23,22.09-14.75a92.61,92.61,0,0,0,28.37-29.53C1000.68,516.65,1002.78,497.54,993.65,477.79Z"/><path class="cls-2" d="M457,409.26c29.3-19.45,56.4-39.42,85.31-56.14,31.75-18.34,65.25-24.64,99.06-3,27.87,17.85,31,40.39,6.89,62.87-26.36,24.6-58.38,41.34-87.19,62.58-3.26,2.41-5.52.92-8.1-.84C521.5,453.26,490.07,431.82,457,409.26Z"/><path class="cls-2" d="M334.73,326c31.27-19.48,58.16-43.29,90.55-58,27-12.25,54-11.28,78.67,7.36,19.54,14.78,21.41,32.68,5.77,51.53-12,14.41-27.75,23.83-42.77,34.28-11.28,7.85-22.66,15.51-34.05,23.2-3.06,2.06-5.76,4.82-10.13,1.81C393.94,366.33,365,346.64,334.73,326Z"/><path class="cls-5" d="M996.3,637.45c2.45-17.39-2.21-33.17-10.57-48.1q-4.54-5.88-9.1-11.77c-1-5.16-3.86-6.83-8.2-5.88a14.46,14.46,0,0,0-7-5.86c-.8-.83-1.59-1.67-2.37-2.5a57,57,0,0,0-20.43,13.85,74.7,74.7,0,0,0-6.9,3.54q-27.35,17.92-54.61,36c-1.16,2.66-3.74,3.61-5.84,5.18-14.54,10.89-30.86,19.2-44.49,31.43a20.69,20.69,0,0,0-4.19,1.62Q748.25,705.25,674,755.58c-5,2.43-10.68,3.56-13.76,8.94a16.69,16.69,0,0,1-1.8,2.89c-3.43,2.16-6.87,4.31-10.28,6.51-25.49,16.47-48.63,37.47-76.59,49.08-51.46,21.35-103.65,20.79-153.83-5.36-26.05-13.57-49.21-32-73.63-48.33-.55-.85-1.08-1.75-1.56-2.66-3.49-6.09-9.81-8.08-15.52-10.95-16.82-8.62-31.58-20.48-47.24-30.92-28.94-19.32-56.58-40.66-87.21-57.34-23.16-20.52-50.32-35.2-75.34-53q-19.41-13.89-38.85-27.77c-9.72-4.17-16.81-12.94-27.13-16.09l-9.77-7.72c-1.94,1.81-5.12,2-6.25,4.87-7.86-.4-10.05,6.76-13.72,11.92q-4.41,5.91-8.84,11.79C3.51,601.9-.8,614.06.09,628.07-.16,636.85,2.64,645,5.59,653c13.61,29.39,40.67,43.45,65.9,59.59a6.52,6.52,0,0,0,4.51.67c.49,4,3.86,5.67,6.69,7.62,22.37,15.31,44.9,30.39,67.35,45.57,3.18,2.16,6.39,4.36,10.41,4.06,0,4.4,3.59,6.11,6.51,8.12,14.74,10.11,29.58,20.08,44.39,30.07,2.8,1.9,5.66,4,9.38,3.33.16-.07.34-.11.5-.18Q248,829.92,274.82,848c46.19,31.68,91,65.84,139,94.42,56.55,33.67,117,33.34,173.34-.58,50.32-30.32,97.53-66,146.09-99.26,4.75,1,8.33-1.79,11.78-4.4,26.59-20,54.39-38.13,81.82-56.84,3.73-2.52,8.24-4.51,9.45-9.49,4.38,3.15,7.65-.42,10.62-2.62,16.7-12.36,34.28-23.44,51.28-35.34,3.35-2.34,7.19-4.37,7.88-9.15a.06.06,0,0,0,0-.06c27.71-18.23,56.81-34.63,78.22-61.17,4.93.6,6.5-3.66,8.72-7C995.25,650.3,999.68,644.58,996.3,637.45Z"/></g></svg>