<svg xmlns="http://www.w3.org/2000/svg" viewBox="0 0 1000 1000"><defs><style>.cls-1{fill:#141414;}</style></defs><g id="Layer_2" data-name="Layer 2"><path class="cls-1" d="M910.36,978.37H748.24C752,933.1,755.66,888.49,759.42,843H679.78c-3.89,45.06-7.75,89.77-11.66,135.16H332.39c-3.9-45.17-7.75-89.89-11.66-135.24H241.07c3.74,45,7.43,89.34,11.21,134.82H90.15c-4.69-29.92-9.57-60.6-14.29-91.3q-22-143.28-44-286.59C21.31,531,10.45,462.25.14,393.38c-.68-4.51,1.26-10.23,3.78-14.27Q112.51,204.66,221.82,30.67c2.8-4.45,10.23-8.47,15.52-8.48,175.17-.44,350.34-.3,525.51-.56,8.29,0,12.62,2.88,16.86,9.7Q887.91,205.17,996.38,378.84a27.07,27.07,0,0,1,3.38,17q-27.27,181.32-55.3,362.51C933.22,831.36,921.83,904.38,910.36,978.37ZM418.71,204.17c-48,0-93.55-.29-139,.46-4.32.07-10.21,5.8-12.52,10.35Q225.93,296,185.9,377.6a38.12,38.12,0,0,0-3.13,20.17c9.67,80.44,19.81,160.82,29.88,241.21,4.65,37,9.42,74.06,14.17,111.43H773.14c1.05-5.59,2.28-10.62,2.92-15.73q21.32-170,42.29-339.95a30.33,30.33,0,0,0-3.08-16.16C788,323.38,760.26,268.44,733,213.26c-3.43-6.93-7.49-9.38-15.27-9.3-41.29.42-82.58.18-123.87.24-3.64,0-7.28.56-11.87.93,3.08,22.76,6,44.55,9,66.38H409.45C412.55,249,415.51,227.43,418.71,204.17Z"/><path class="cls-1" d="M673.89,545.29c-4.19,23.17-7.71,46.46-13.06,69.32-1.3,5.56-8.63,9.71-13.18,14.51-4.07-4.79-10.2-9-11.89-14.48-14-45.93-14.15-92.22-.18-138.17,1.8-5.92,8.38-10.38,12.74-15.52,4.41,5.13,11.41,9.65,12.77,15.48C666.28,498.85,669.67,521.7,673.89,545.29Z"/><path class="cls-1" d="M386.61,551.49c-4.7,24.94-8.46,48.18-13.82,71-1.26,5.4-7.92,9.53-12.1,14.25-4.17-4.73-10.21-8.78-12.21-14.29-11.36-31.29-12.75-63.92-9.08-96.59,1.78-15.81,6.07-31.43,10.4-46.8,1.17-4.16,7.11-10.28,10-9.85,4.41.64,10.65,5.64,11.67,9.85C377.31,503.28,381.8,527.78,386.61,551.49Z"/></g></svg>