<svg id="Layer_1" data-name="Layer 1" xmlns="http://www.w3.org/2000/svg" viewBox="0 0 1000 1000"><defs><style>.cls-1{fill:#141414;}</style></defs><path class="cls-1" d="M933.77,0Q716.95.38,500.13.18H68.28c-2.39,0-4.8.17-7.18,0C56.76-.19,55.49,1.38,56,5.87c1.63,15.45,2.75,31,4.16,46.44Q64.91,105,69.8,157.68q5,53.58,10,107.14,5.93,63.84,11.77,127.69,5.79,63,11.6,125.9t11.54,125.92c3.89,42,7.9,83.92,11.76,125.89q5.74,62.5,11.23,125c.5,5.78,2.58,8.72,8.62,10.34q174.31,46.54,348.48,93.64a18.6,18.6,0,0,0,10.38,0q174.18-47,348.48-93.67c5.92-1.59,8.22-4.33,8.74-10.22,3.59-41.1,7.42-82.17,11.17-123.25q5.74-63,11.51-125.92c3.88-42,7.93-83.92,11.8-125.89,3.89-42.26,7.59-84.54,11.5-126.81,3.87-42,8-83.92,11.84-125.89,3.89-42.26,7.6-84.54,11.45-126.81,4-43.46,7.72-86.94,12.26-130.34C944.92,1.17,942.09,0,933.77,0ZM775,190.28q-4,47.83-7.14,95.72c-.35,5.37-4,6-7.4,7.49Q653.17,339,545.92,384.35c-14.55,6.16-29.1,12.3-43.62,19.79,3,.13,6,.37,9,.37,78.71,0,157.42.15,236.13-.18,8.17,0,10.15,2.22,9.44,10q-6.36,70.13-12.07,140.3c-3.88,46.78-7.58,93.57-11.37,140.35-1.21,14.9-2.75,29.78-3.55,44.7-.31,5.74-3.82,6.68-8,7.82q-87.15,24.16-174.3,48.35c-11.5,3.19-23.23,5.71-34.5,9.58-9.24,3.18-17.64,2.74-26.94,0Q384.44,775.28,282.44,746c-5.87-1.69-8.69-3.74-9.22-10.54-4-51.56-8.56-103.09-13.11-154.6-.42-4.69.68-6.45,5.56-6.43q49.38.19,98.76,0c4.61,0,6.1,1.76,6.41,6.29,1.65,23.56,3.88,47.08,5.32,70.65.42,6.85,3,9.74,9.53,11.47,36.65,9.7,73.19,19.78,109.73,29.87a23.86,23.86,0,0,0,14-.13c36.24-11.15,72.49-22.24,108.87-32.92,6-1.76,7.54-4.53,7.89-10.47,2.49-42.1,5.18-84.19,8.42-126.23.66-8.44-2.63-9-9.44-9-120.91.16-241.82,0-362.73.29-8.62,0-12.21-1.29-12.62-11.22-1.27-30.76-3.75-61.48-6.2-92.19-.48-6.12,2.86-7.58,7.18-9.4q128-53.88,255.92-107.88c1.3-.55,3-.42,3.64-2.59-7.11,0-14.12,0-21.13,0q-123,.86-246,1.88c-7.19.07-10.19-1.18-11.22-9.37-3.84-30.51-8.77-60.89-13.47-91.29-1.08-6.92-.89-10.49,8.35-10.48q269.81.17,539.59-.54C773.88,181.16,775.52,183.41,775,190.28Z"/></svg>