<svg xmlns="http://www.w3.org/2000/svg" viewBox="0 0 1000 1000"><defs><style>.cls-1{fill:#141414;}</style></defs><g id="Layer_2" data-name="Layer 2"><path class="cls-1" d="M117.11,370.83c.52,26.89,12.84,59.27,29.34,90.42,1.7,3.22,3.64,6.32,5.18,9.61a22.31,22.31,0,0,1-9.29,28.93c-10.16,5.74-23.36,2.87-29.33-7.41C90.5,453.59,74.49,412.54,72.56,367.14c-2.84-67,34.1-121.2,99.64-146.7,41.75-16.25,85.31-19.58,129.56-17.33a456.37,456.37,0,0,1,66.92,8.16c13.2,2.66,21,14,18.48,26.28s-14,19.71-27.27,17.28c-32.79-6-65.82-8.88-99.15-7.22-29.1,1.45-57.43,6.59-83.88,19.5C137.38,286.38,116.81,319,117.11,370.83Z"/><path class="cls-1" d="M737.42,203.32c38.22,1.94,75.32,8.49,109.7,26.27,57.06,29.5,86.46,84.57,80.16,148.5-4.73,47.91-23.81,90.26-48.84,130.46a496.85,496.85,0,0,1-41.34,56.5c-9.15,10.91-22.31,12.76-32.32,4.66s-11-22.1-1.87-33.12c26.52-32,49.7-66.05,65.41-104.75,8.59-21.15,14.55-43,15.12-66,1.13-45.15-18.89-77.58-59-97.73-24.12-12.11-50.07-17.22-76.73-19.3-7.27-.57-14.56-.76-21.84-1.12-12.5-.61-21.84-10.34-21.63-22.53s9.68-21.59,22.29-21.84C730.13,203.26,733.78,203.32,737.42,203.32Z"/><path class="cls-1" d="M501.16,1000c-41.78-.32-76.08-17.24-106.13-44-33.21-29.59-56.56-66.34-75.82-106a537.06,537.06,0,0,1-21.77-52.12c-4.83-13.32.23-25.83,12.2-30.4,12.32-4.7,24.44,1.34,29.47,15,14,38.16,31.11,74.72,55.69,107.39,13.49,17.94,28.85,34,47.65,46.5,38,25.29,78.15,25.32,116.14,0,25.86-17.24,44.9-40.81,61.52-66.6,2-3.06,3.71-6.29,5.8-9.27A22.05,22.05,0,0,1,655,853.77c10,5.69,15.09,18.35,9.27,28.23-30.84,52.38-68.87,96.81-130.62,113.85C522.79,998.84,511.7,999.64,501.16,1000Z"/><path class="cls-1" d="M446.2,524.86a54.35,54.35,0,0,1,54.69-54.61c29.78.1,53.92,24.6,54,54.76A54.47,54.47,0,0,1,500.1,579.6C470.24,579.5,446.17,555.06,446.2,524.86Z"/><path class="cls-1" d="M638.62,232.46c-2.77-12.4-14.43-19.34-27.62-16.49-15.27,3.32-30.45,7.05-45.41,11.58q-194.52,58.89-344,196.63C175,467.14,134.49,515.26,105,571.86,86.15,608.17,73.1,646.24,73.15,687.77c0,5.65-1.52,9.23-6,12.87-23.36,19.08-31.95,51.54-21.65,79.75,10.36,28.42,37.2,47.48,66.93,47.55,36.79.08,68.82-28.53,71.73-64.09,3.25-39.6-21.47-72.61-59.69-78.82-6.77-1.1-7.45-3.72-6.82-9.51,3.35-31,14-59.49,28.61-86.66C176.6,532.6,218.35,485.6,266.17,444,369.54,354,487,290.71,621,259.3,634.26,256.19,641.43,245.05,638.62,232.46ZM140.18,755.79a27.24,27.24,0,1,1-27.28-27.35A27.2,27.2,0,0,1,140.18,755.79Z"/><path class="cls-1" d="M729.81,346.48c-12.86-61.74-32-121.27-63.7-176.19-23-39.85-51.09-75.15-91.31-99.17-2.7-1.62-2.85-3.87-3.1-6.49-4.82-49.3-58-79.13-102.35-57.45a72.25,72.25,0,0,0,9.49,133.68c27.91,9,58.05.13,77-23.11,3-3.66,4.69-3.39,8-.85a194.52,194.52,0,0,1,25.8,23.19c32.06,34.8,53.14,76,69.4,119.92,30.27,81.68,42.61,166.54,43.86,253.28a841.77,841.77,0,0,1-14.17,168.86,754.82,754.82,0,0,1-18.71,76A22,22,0,0,0,684.35,786c11.59,3.84,23.37-2.13,27.8-14.13.89-2.41,1.59-4.88,2.32-7.34,23.21-78.27,32.8-158.41,33-239.83C747.4,464.69,742,405.23,729.81,346.48ZM500.64,99.56a27,27,0,0,1-27.22-27.4c0-15.24,12.36-27.72,27.26-27.55a27.66,27.66,0,0,1,27,27.26A27.31,27.31,0,0,1,500.64,99.56Z"/><path class="cls-1" d="M953.72,729.21a71.52,71.52,0,0,0-66.44-45.39c-48.5,0-82.85,46.78-68.38,93.55,1.46,4.7.41,6.35-3.7,8-22.89,9.21-46.77,13.91-71.27,15.39C691.36,804,640,796.14,589.58,782.05,471.32,749,366.44,690.93,273,611.74a643.55,643.55,0,0,1-60-58.21c-6.41-7-14.35-9.27-23.34-6.72-8.61,2.44-13.72,8.66-15.44,17.29-2,10,3.42,17,9.84,23.84,93.84,99.4,206.14,170.75,333.86,218,75.55,28,153.31,44.93,234.63,38.73,32.51-2.48,63.93-9.59,93.15-24.63,3.52-1.81,6-1.55,9.36.16a70.93,70.93,0,0,0,79.68-10.49A72.41,72.41,0,0,0,953.72,729.21Zm-67,54a27.39,27.39,0,0,1,.5-54.77c15.08,0,27,12.29,26.95,27.69A26.85,26.85,0,0,1,886.72,783.17Z"/></g></svg>