<svg xmlns="http://www.w3.org/2000/svg" viewBox="0 0 1000 1000"><defs><style>.cls-1{fill:#010101;}</style></defs><g id="Layer_2" data-name="Layer 2"><path class="cls-1" d="M732.87,999.78,0,266.79c34.4-9.4,68.77-19,103.23-28.17,97.11-26,194.33-51.63,291.32-78.09,12.33-3.36,20.38-2.79,29.73,7.23,24.17,25.9,49.86,50.38,78,78.54L210.54,324.94C265,379.15,317,430.78,368.7,482.82c7.49,7.55,14.55,5.44,22.75,3.21,51.07-13.9,102.23-27.41,153.24-41.51,14.45-4,20.85-3.6,15.61,14.68-14.56,50.85-27.65,102.12-41.36,153.22-2.14,8-5.32,15.21,2.45,22.87C572,685.13,622.14,735.36,674.71,787.71c26.11-97.19,51.5-191.66,78.11-290.71,30.46,30.35,58.41,58.28,86.46,86.11,4.78,4.75,2.44,9.32,1,14.55C804.57,731,769,864.42,732.87,999.78Z"/><path class="cls-1" d="M883.91,435.42c-30.18-31.34-56.64-59.19-83.59-86.56-6.81-6.9-4.32-13.19-2.3-20.67,15.16-56.15,30-112.37,44.91-168.42-4.94-5.89-9.84-1.67-14.56-.42-50.4,13.39-101,26.23-151.06,40.64-15.16,4.36-25,1.75-35.62-9.78-20.5-22.25-42.67-43-64-64.42-5.21-5.24-13.53-10.69,1.64-14.71Q787.45,55.86,995.46.24c.49-.13,1.19.53,4.54,2.18C962,144.28,923.78,286.71,883.91,435.42Z"/></g></svg>