<svg xmlns="http://www.w3.org/2000/svg" viewBox="0 0 1000 1000"><defs><style>.cls-1{fill:#33373f;}</style></defs><g id="Layer_2" data-name="Layer 2"><path class="cls-1" d="M510.18,998.65H486.3c-18.53-1.54-31.31-12.57-43.82-25.11Q234.11,764.85,25.2,556.64C11.68,543.19,1.89,528.8,0,509.64V488.77C1.26,471.49,10.4,459,22.47,447Q160,310.46,296.81,173.15c3.15-3.16,6.46-6.19,9.54-9.43,7.76-8.22,15-7.77,22.93.1q47.48,47.4,94.92,94.84c6.69,6.68,8.31,14,6.11,23.09-7.93,32.39,3.83,58,29.91,76.59,11.81,8.41,15.33,17.78,15.26,31.26-.35,76.51-.53,153,.12,229.52.14,16.36-4.14,27.35-18.28,37.22-22.9,15.95-32.74,40-28.43,67.74,4.38,28.24,21.41,47.81,48.32,57.56,33.16,12,68.18-1.61,85.88-32.32C577.91,723.61,577.46,681,546,658c-13.25-9.65-16.21-20.44-16.11-35.36.49-75.51.15-151,.35-226.55,0-7.05-3.05-17,5.23-20,6.89-2.54,11.86,5.77,16.62,10.55,24.73,24.46,49.06,49.33,74,73.6,9.23,9,13,18.22,11.26,31.71-5.8,45.46,18.91,80.47,60.63,85.75,29.4,3.69,54.16-6.54,70.52-32,16.24-25.26,17.12-52,.79-77.34-16-24.81-39.75-37.42-69.78-33.57-13.29,1.71-22.87-1.77-32-11.08q-42.33-43.05-85.43-85.36c-8.45-8.31-11.78-16.79-10.8-29,3.13-39-14.31-66.63-47.68-78.56-12.07-4.32-24.48-4.2-36.81-2.37-8.72,1.3-15.52-1.11-21.59-7.16q-48.12-47.83-96-95.88c-8.27-8.31-8.66-15.89-.2-24.32,28.17-28,55.9-56.55,84.58-84,8.79-8.42,19.13-14.42,32-14.17,6.72.74,13.23-1.57,19.92-1.43C523.74,3,538.13,12.19,550.7,24.77q211.92,211.7,423.66,423.52c34.17,34.16,34.17,73.5.09,107.69q-210,210.43-420.39,420.43C541.74,988.7,527.74,997,510.18,998.65Z"/></g></svg>