<svg xmlns="http://www.w3.org/2000/svg" viewBox="0 0 1000 1000"><defs><style>.cls-1{fill:#33373f;}.cls-2{fill:#716f6f;}.cls-3{fill:#0e0f0f;}.cls-4{fill:#191a1a;}.cls-5{fill:#1c1c1c;}.cls-6{fill:#0f0f0f;}</style></defs><g id="Layer_2" data-name="Layer 2"><path class="cls-1" d="M998,552.76q-9.94,128.82-80.81,236.84C874.39,855,818.83,907.09,751.46,946.55A494.47,494.47,0,0,1,663.15,987c-24.56,8.51-38.75-1.93-38.76-27.68,0-41.67-.09-83.4,0-125.1.1-35.32-6.22-68.52-30.2-96.3-.33-.39-.2-1.17-.39-2.53,21.59-3.8,43.36-6.92,64.5-12.85,54.1-15.15,99.59-42.31,128.71-92.34,18.35-31.48,27-65.94,30.2-101.85,3.28-37.15,2.23-74.08-10.76-109.74-7.06-19.4-16.37-37.51-29.63-53.33-6.1-7.28-7.4-15-5.14-23.58,9.61-36.72,6-72.8-4.92-108.55-3-9.95-8.84-13.49-19.1-12.44-28.19,2.87-55.28,10-78.51,26.45-30,21.21-61.92,23.44-96.56,15.8-49.6-10.94-99.54-9.05-149.35-.5-10.86,1.85-21.65,4.23-32.48,6.34-11.77,2.29-22.36-.51-32.57-6.64-23.39-14.06-47.51-26.65-73.61-35.07a188.86,188.86,0,0,0-30.41-6.59c-12.48-1.85-16.88,1.15-21,13.27C221.1,269.11,219.25,305,228,341.2c2.27,9.41.23,16.91-5.75,24.36-35.93,44.8-44.18,97.23-40.66,152.49a282.88,282.88,0,0,0,22.66,95.16c22.1,50.93,62.19,82,112.6,101.48,27.08,10.46,55.55,15.53,84.92,20.14-8.23,21.15-16.2,41.89-24.42,62.54-1.93,4.88-6.67,7-11.15,8.94-48.67,20.73-96.43,7.28-127.78-35.61-12.36-17-23.57-35.15-42.09-46.82-18-11.35-36.49-17.84-57.73-9.12-4.16,1.71-5,2.86-2.58,6.64,4.41,6.9,9.16,13.28,16.17,17.93,20.61,13.68,35.1,32.58,46,54.51,7.8,15.62,14,32.1,25.84,45.53,23.15,26.25,53.4,35.9,86.89,37.48,18.85.93,37.78.5,56.66.07,6.49-.15,8.28,1.75,8.15,8.12-.55,27-.4,54.08-1,81.11-.35,16.73-9.74,25-26.55,22.87-19.85-2.52-37.64-11.77-55.72-19.55-84-36.16-148-96.77-202.11-168.69C46.3,742.27,18,676.6,5.24,604.49c-2.48-14.38-5-28.91-4.72-43.64L.41,495.17c-1.53-25.49,1.16-50.63,6.34-75.51,9.79-47.06,24.15-92.72,45.08-136,33-68.21,78.82-126.16,140.1-171.52C254.38,65.94,324.68,38.31,400,21.79c34.19-7.5,68.82-11.93,103.61-11.71,71.5.45,140.2,15.11,205.34,45.37,97.88,45.49,173.57,115.31,227.63,208.34a482.24,482.24,0,0,1,59.52,167.59c2.55,16,1.86,32.32,3.49,48.43q-.8,24.88-1.6,49.76A73.63,73.63,0,0,1,998,552.76Z"/><path class="cls-2" d="M998,552.76V529.53c3,7.6,1.85,15.45,1.53,23.24l-.76-.23Z"/><path class="cls-3" d="M318.32,816.65c3.31,2.89,6.54,5.17,9.05,8.08,1.9,2.21,7.8,3.08,4.17,7.78-3.08,4-7.17,6.64-12.65,3.47-4.09-2.37-6.71-5.2-4.55-10.18C315.57,822.9,316.85,820,318.32,816.65Z"/><path class="cls-4" d="M296.55,823.4c-5.46,8.75-11.38,9.59-18.25,4.11-1.78-1.42-5.56-2-3.46-5.6,1.55-2.63,4-4.53,7.35-3.5C286.79,819.81,291.28,821.54,296.55,823.4Z"/><path class="cls-5" d="M360.42,836c-3.7-2.05-7.4-5.78-7.19-8.51.38-5.13,6.06-7.2,10.55-8,3.08-.56,7.27,3.45,6.85,5.63C369.66,830.15,364.35,832.57,360.42,836Z"/><path class="cls-6" d="M250.17,816.05c-2.88-3.84-5.55-7.4-8.24-11-1.85-2.51-1.26-4.63.86-6.81,2.55-2.6,4.45-1,6.7.49C256.69,803.62,259,808.85,250.17,816.05Z"/></g></svg>