<svg id="Layer_1" data-name="Layer 1" xmlns="http://www.w3.org/2000/svg" viewBox="0 0 1000 1000"><defs><style>.cls-1{fill:#191919;}</style></defs><path class="cls-1" d="M924.63,0c-141.48.52-283,.32-424.44.32H78.92c-20.41,0-20.56,0-18.76,20.36q7.61,85.89,15.41,171.78,10.14,113.48,20.22,227,10.38,115.83,20.88,231.66c7.15,79.32,14.47,158.62,21.2,238,.81,9.56,4.2,13,13.37,15.56q168.95,46.44,337.62,93.91a38.68,38.68,0,0,0,21.57-.13c112.51-31.4,225-62.9,337.68-93.7,10.11-2.77,13.09-7,13.88-16.76,3.9-48.37,8.51-96.67,12.88-145q10.49-115.83,20.94-231.66c6.86-76.7,13.48-153.42,20.34-230.11,7.89-88.26,15.72-176.53,24.16-264.73C941.58,3.1,938,0,924.63,0ZM774.94,197.07c-3.27,28.27-5.71,56.7-7,85.13-.55,12.27-5.31,14-16.18,13.94-130.91-.38-261.83,0-392.74-.56-13.9-.05-17.68,2.17-15.11,17.07,4.55,26.44,6.81,53.34,8.69,80.15.83,11.86,5.36,14,16.41,14,122.46-.42,244.93,0,367.39-.65,15.35-.08,17.47,4.1,16.17,18.36-7.73,85.09-14.33,170.29-21.36,255.44-1.61,19.45-3.76,38.86-5,58.33-.46,7.39-3,11.23-10.26,13.18q-104.41,28.13-208.71,56.68c-5.32,1.45-10.24.64-15.49-.78q-103.62-28-207.39-55.47c-8.92-2.36-12.14-6.31-13-16q-6.27-74.07-14.68-148c-1.29-11.36,1-14.41,12.5-14.1,28.48.79,57,.86,85.5-.05,10.69-.34,13.36,3.9,14.18,13.14,1.86,21,4.74,41.92,6.41,62.94.66,8.31,4.32,11.47,12,13.54,35,9.51,70,19.49,104.8,29.65a25.56,25.56,0,0,0,15.29,0c34.85-10.16,69.74-20.18,104.79-29.62,8.52-2.3,11.21-6.11,11.8-15,2.59-38.41,5.3-76.87,10-115.06,1.77-14.49-3.55-15.09-14.84-15.06-116.66.29-233.32-.13-350,.56-14.63.09-18.34-4.49-19.53-18.18q-13.23-152.1-28-304.06c-1.08-11.29.35-15.33,13.28-15.24,88.15.66,176.3.34,264.46.35,87.1,0,174.2.28,261.29-.32C773.5,181.34,776.38,184.62,774.94,197.07Z"/></svg>