<svg xmlns="http://www.w3.org/2000/svg" viewBox="0 0 1000 1000"><defs><style>.cls-1{fill:#010101;}</style></defs><g id="Layer_2" data-name="Layer 2"><path class="cls-1" d="M551.11,0c25.34,5.62,50.72,11,76,16.92,38.25,8.91,74.13,24,110.39,43.1-22.33,19.22-42.06,39.8-53.13,67-4.59,11.31-11.71,2.6-16.11.59C604.38,98.51,537.67,88.12,467.7,92.88,295.22,104.62,140.13,236.5,102.48,404.77,51.35,633.22,189.25,850,417.85,900.48c220.88,48.81,451.08-109.36,484.67-331.93,11.29-74.83,5.3-147.14-22.46-217.51-3.64-9.22-6.06-14.74,6.84-19.44,24.67-9,44.6-25.72,63.21-47.59,20.44,39.94,32.54,81,41.4,123.29,2.6,12.4.14,26.06,8.49,37.15v111.1c-5.33,75.91-29,146-70.12,209.61-76.3,118.09-181.51,196.66-320,228.15-20.84,4.74-42.41,2.23-63.25,6.68H444.44c-61.06-4.52-119.18-20.23-173-49.3C134.89,876.93,44.9,766.2,7.62,614.28,3.22,596.38,5,577.73,0,560V440c6.57-74.13,29.85-142.9,70.12-205.16,76.36-118,181.51-196.65,320-228.11C408,2.65,426.62,4.61,444.44,0Z"/><path class="cls-1" d="M728.29,501c-.85,124.93-105.89,228.83-229.83,227.37-125.26-1.48-228.53-106.42-226.74-230.4,1.8-124.49,105-226.59,228.65-226.27C625,272,729.15,376.75,728.29,501Z"/><path class="cls-1" d="M930.28,188.17c-.45,58.56-46.66,105.18-103.66,104.57-58.38-.62-103.21-47.57-102.78-107.64.42-58.21,44.21-100.75,103.61-100.64C887.7,84.57,930.74,128,930.28,188.17Z"/></g></svg>