<svg id="Layer_1" data-name="Layer 1" xmlns="http://www.w3.org/2000/svg" viewBox="0 0 1000 1000"><path d="M600.94,0a91.87,91.87,0,0,1,17.38,28.87C630.5,60,628.58,91.08,617.45,122c-9,25-23.12,47-39.76,67.5-22.24,27.4-48.19,50.93-75.75,72.81-20.74,16.47-40.17,34.27-56,55.71-10.84,14.71-19.33,30.59-23.28,48.58-4.64,21.13-1.84,41.57,6.12,61.48,8.43,21.12,21.09,39.78,33.94,58.33,10.62,15.34,21.56,30.47,30.78,46.73A70.56,70.56,0,0,1,500,547c-.77-.6-1.58-1.16-2.31-1.81-20.34-18.34-40.46-36.93-59.37-56.76-17.5-18.34-34.08-37.43-47.48-59.05-9.18-14.81-16.6-30.37-19.86-47.69-4.21-22.31.11-42.88,12.28-61.88,12.35-19.28,28-35.63,44.89-51C452.27,247,478.48,227.54,503.74,207c19.48-15.86,38.52-32.2,55.28-51,18.46-20.71,33.38-43.48,41.21-70.42,5.94-20.43,7.08-41.15,4.56-62.2C603.84,15.51,602.24,7.79,600.94,0Z"/><path d="M289.63,851.19c-5.13.63-10.06,1.06-14.92,1.87-22.5,3.75-44.69,8.65-65.29,19a45.28,45.28,0,0,0-12.1,8.16c-5.18,5.19-4.72,10,1.58,13.81,6.72,4.1,14.22,6.39,21.68,8.65,22.8,6.93,46.21,10.7,69.78,13.76,22.73,3,45.55,4.92,68.42,6.31,40.37,2.44,80.79,3,121.23,2.77,31.2-.21,62.37-1.22,93.52-2.8,26.25-1.34,52.48-3.17,78.63-5.84,37.66-3.85,75.24-8.33,112.06-17.53,13-3.24,25.69-7.22,37-14.67a29.39,29.39,0,0,0,8.46-8c3.49-5.16,3.79-10.5.8-16-.88-1.59-2-3-3.44-5.19,7.49,3.8,14.28,7.34,17.31,15.13,1.54,4,.45,7.71-1.64,11.19-3,5-7.32,8.57-12,11.76-14.61,9.9-31,16-47.61,21.37-25.7,8.38-52,14.16-78.61,19-22.09,4-44.31,7.19-66.61,9.68-20.72,2.32-41.49,4.07-62.29,5.49-43.95,3-87.95,3.71-132,3q-45.48-.76-90.84-4.23c-25.44-1.92-50.84-4.25-76.18-7.24-29-3.42-57.89-7.24-86.58-12.56-9.61-1.78-19-4.37-27.72-9a29.24,29.24,0,0,1-6.87-4.9c-5-4.91-5.79-10.46-2.39-16.56,2.82-5,7-8.86,11.52-12.27,15.3-11.45,32.71-18.69,50.57-25,19.29-6.76,39.07-11.69,59.46-13.55,10.46-1,21.06-1.44,31.25,2.29A7.77,7.77,0,0,1,289.63,851.19Z"/><path d="M723.33,205.27c-11.43,6.86-22.94,13.59-34.28,20.59-28.09,17.34-55.73,35.36-81,56.75C593.61,294.87,580,308,570,324.27c-8,12.9-12.38,26.69-10.33,42.07,1.51,11.37,6,21.66,11.49,31.56,9,16.14,20.18,30.86,30.54,46.11,9,13.28,14.34,27.72,13.2,44-1,14.81-6.84,27.89-15.35,39.84-16.54,23.23-38.69,39.95-63,54.13-.16.1-.39.06-1.07.14a136.77,136.77,0,0,0,12.48-13.85c7.85-10.3,13.85-21.51,16.23-34.36,3-16.27-.61-31.17-9.52-45-5.15-8-11.84-14.71-17.59-22.21-14-18.3-25.7-37.85-31.44-60.43-7.48-29.42-2.2-56.73,14.14-82.09,13.17-20.42,30.76-36.44,50.34-50.43,34.42-24.59,72.56-41.76,112.14-56A380.1,380.1,0,0,1,723.33,205.27Z"/><path d="M367.35,773.47c-2.09,2.27-4.33,4.15-6.21,6.41-4.86,5.85-4,11.28,2.62,15.15,6.39,3.75,13.51,5.36,20.7,6.36,32.07,4.47,64.24,8,96.68,7.8a494,494,0,0,0,69.44-5.57q25.11-3.68,50-8.52a6.11,6.11,0,0,1,4.68.59,313.06,313.06,0,0,0,51.14,24.83,17.71,17.71,0,0,1,1.7.9c-10.17,4.43-20.31,8.15-30.56,11.57a434.13,434.13,0,0,1-72.31,17.29,484.48,484.48,0,0,1-99.74,4.84c-30.11-1.64-59.8-5.78-88.57-15.16-13-4.25-25.72-9.37-36.35-18.39-5-4.21-9.13-9-9.16-16.15,0-5.59,2.95-9.66,6.78-13.2,8.33-7.68,18.63-11.77,29.07-15.52C360.59,775.5,364,774.54,367.35,773.47Z"/><path d="M385.3,550.82c-8.22,2.23-16.48,4.33-24.65,6.7-20.1,5.82-40.15,11.76-59.11,20.82a61.46,61.46,0,0,0-13.86,8.45c-6.29,5.39-5.78,10.37,1.57,14.12,7.84,4,16.41,5.52,25,6.81,38.94,5.87,78.17,5.49,117.39,5.3,28.38-.15,56.72-1.31,85-2.79,26.46-1.38,52.89-3.2,79.23-6.24,29.85-3.43,59.61-7.53,89.31-12,8.78-1.32,17.52-2.87,26.41-4-5.15,2.46-10.32,4.89-15.45,7.4-8.67,4.25-17.14,8.89-25.45,13.82-5.22,3.1-11.31,3.62-17.08,5-24.94,5.78-50.18,9.92-75.56,13.24Q543,632,507.77,634.37c-43.17,2.82-86.39,4.13-129.68,2.92-24.44-.69-48.86-1.81-73.19-4.2-23.85-2.34-47.64-5.29-70.68-12.37-6.12-1.88-12.14-4.12-17.41-7.88-7.45-5.31-7.8-11-1.08-17.14,6.28-5.74,14.05-9,21.65-12.4a375.87,375.87,0,0,1,91-28.2c17.77-3.09,35.68-5.08,53.77-4.79,1,0,2,0,3.06,0Z"/><path d="M675,714.27c-13.3,4.05-25.87,7.25-38.49,10.28a722.65,722.65,0,0,1-78,14.17,767.64,767.64,0,0,1-120.29,6.11c-31-1-61.76-3.64-92-10.58-15.12-3.47-30-7.71-43.3-16.24a36,36,0,0,1-7.69-6.5c-5.37-6.07-5.81-12.65-1.13-19.29,4-5.63,9.52-9.45,15.34-12.91,9.84-5.83,20.41-10,31.15-13.82a13.3,13.3,0,0,1,1.87-.37c-2.44,2.8-4.69,5.27-6.8,7.84a22.29,22.29,0,0,0-2.46,3.83c-4,7.58-2.15,13.89,5.26,18.24,5.6,3.29,11.79,4.94,18.12,6,15.55,2.56,31.28,3.4,47,4.67q35.12,2.84,70.34,2.52c23.59-.25,47.09-1.86,70.55-4.42,29.78-3.24,59.25-8.35,88.63-14,1.08-.2,2-.61,3,.36C646.94,700.83,659.67,708.69,675,714.27Z"/><path d="M265.43,970.52c6.51.93,12.89,1.89,19.28,2.77,14.62,2,29.28,3.66,44,5s29.44,2.44,44.18,3.34c26.37,1.62,52.76,2.41,79.17,2.69q46.32.48,92.59-1.61,35.48-1.65,70.86-5c35.88-3.31,71.59-7.93,107-14.6S792.68,948.39,826,934.46c12.14-5.08,23.85-11,34.19-19.31a63.25,63.25,0,0,0,8.57-8.65c.19,4-1.07,7.21-2.35,10.34-4.79,11.72-13.55,20-23.69,27.06-15.75,11-33.36,18-51.48,23.83-26.57,8.55-53.85,14.07-81.39,18.44-22.63,3.59-45.36,6.29-68.17,8.29-51.25,4.52-102.61,6-154,5.42-27.94-.32-55.84-1.48-83.72-3.17-21.58-1.31-43.11-3.06-64.51-6.07-20.73-2.91-41.32-6.56-61.13-13.65a77.45,77.45,0,0,1-11-4.86C266.6,971.79,265.8,971.57,265.43,970.52Z"/><path d="M711.29,737.35A12.06,12.06,0,0,1,717,731c23.6-12.4,46.24-26.31,66.47-43.82,14.64-12.68,27.69-26.73,36.3-44.33,7.49-15.31,10.74-31.33,5-47.91-7.64-22.23-24.15-34.89-46.37-40.63-14.37-3.72-28.17-.66-41.74,4.24-1.07.38-2.07,1.28-3.57.63,3-4.91,7-8.76,12.3-10.76,24.2-9.17,48.81-11.37,73.49-2.3,23.25,8.56,40.29,23.83,47.46,48.22,6.23,21.2,1.22,40.81-10.24,59-11.58,18.42-27.81,32.08-46,43.58-28.49,18.06-59.73,29.61-92,38.62C716,736.18,713.76,736.71,711.29,737.35Z"/></svg>