<svg xmlns="http://www.w3.org/2000/svg" viewBox="0 0 1000 1000"><defs><style>.cls-1{fill:#0f131e;}</style></defs><g id="Layer_2" data-name="Layer 2"><path class="cls-1" d="M975.84,710.32c-16,37.46-38.21,71-64.75,101.9-72.84,84.7-165.59,134.55-276.33,151.95-55,8.65-110.15,8.11-165.4,1.18-111.73-14-205.64-64.71-288.27-137.36-84-73.83-141-164.71-167.55-273C-9.58,460.59-4.61,368.35,40.22,280c17.62-34.72,43.93-63.12,67.42-93.59,5.86-7.61,12.09-14.94,18.56-22.93,1.47,4.37-1.15,6.85-2.38,9.58A379.25,379.25,0,0,0,90.53,336.77c2,113,42,212.31,113,299.74,79.91,98.5,182,164.94,305.68,197.37,62,16.26,125.57,19.58,189.56,13.68C768.87,841.08,834.31,821,893.63,783a357.09,357.09,0,0,0,43.71-33.39C951.1,737.41,963.37,723.86,975.84,710.32Z"/><path class="cls-1" d="M1000,462.87c-10.17,29.43-25.77,55.79-45.35,79.75C901.76,607.31,832.93,644.32,750,657c-51.94,8-104,7.13-155-3.26-43.41-8.83-83.4-28.06-120.64-52.17-83.74-54.2-144-126.6-170.48-222.71-25.13-91.06-14.14-177.42,44-255.22,9.74-13,19.09-26.37,28.64-39.53.34-.46,1.13-.62,1.73-.92,1.78,1.83.58,3.5-.16,5.27-37.82,89.67-31.41,178.25,12.63,263.17,62.51,120.5,163,193.84,297.83,219.53C769.8,586.7,847.76,575.79,920,533.7a265.59,265.59,0,0,0,75.66-66C997,466,998.53,464.48,1000,462.87Z"/><path class="cls-1" d="M591.12,29.4c-3.61,14.66-8.44,28.6-10.66,43.24C573.71,117.1,582.82,158.92,604,198c41.67,77.13,106.81,122.56,194.24,137,38.28,6.3,76,6,112.74-8.17,22.3-8.6,40.94-22.26,57.16-39.63-7.6,16-17.89,30.15-29.77,43.21-39.22,43.17-89.53,60.58-147,61.45-111.49,1.71-203.1-73-236-155.81-26.47-66.5-20.71-129.94,22.63-188.65Q584.47,38.35,591.12,29.4Z"/></g></svg>