<svg id="Layer_1" data-name="Layer 1" xmlns="http://www.w3.org/2000/svg" viewBox="0 0 1000 1000"><path d="M1001.13,7.56c0-4.88-1.1-6-6-6q-494,.21-988,0c-4.88,0-6,1.1-6,6q.21,494,0,988c0,4.88,1.1,6,6,6q247-.23,494-.12t494,.12c4.88,0,6-1.1,6-6Q1000.94,501.59,1001.13,7.56ZM545.63,632.23h-.24c0,54.22.85,108.47-.31,162.67-.75,35.06-11.22,67.34-37.25,92.76-18.78,18.34-41.84,28-67.29,32.41-33.91,5.84-67.36,4.19-99.6-8.66-33.9-13.52-58-37.78-74.45-70-1.62-3.17-1.53-4.67,1.69-6.6Q302.7,814.18,337,793.13c3.13-1.92,4.63-1.76,6.4,1.56a166.25,166.25,0,0,0,16.78,25.42c18.34,23,51.42,22.58,69.92,13,13.38-6.9,17.94-19.84,20.23-33.73a135.13,135.13,0,0,0,1.41-22q-.09-154.86-.18-309.73c0-5.71,1.35-7.16,7.06-7.09,26.89.32,53.79.27,80.68,0,5-.05,6.5,1.18,6.48,6.37C545.55,522,545.63,577.14,545.63,632.23ZM923.27,793.51c-.77,56.1-29,98.1-82.29,116.9-62,21.9-123,17.76-180.92-14.74-26.67-15-46.49-37.2-61.28-63.94-1.95-3.51-1.77-5.21,2-7.37Q634.92,805,668.68,785c3.48-2.06,4.78-1.58,6.84,1.69,13.6,21.54,30.59,39.49,55.54,47.57,23.74,7.68,47.77,8.56,71-2,32.78-14.87,37.09-53.12,8.65-75.22-14.48-11.26-31.54-17.8-48.13-25.11-26.87-11.83-54.26-22.54-78.71-39.24-30.72-21-51.15-48.76-57.24-86.05C614,529.32,657.88,472.08,728.34,458.53a205.88,205.88,0,0,1,30.38-3.12c29.63.1,54.06,3.7,76.88,15,25.74,12.75,44.09,33,58.62,57.29,1.95,3.26,0,4-2,5.31-22,14.13-44.08,28.23-66,42.52-3.09,2-4.31,1.23-5.92-1.6-5.86-10.23-12.76-19.73-22.72-26.34-17.45-11.59-36.54-13.51-55.79-6.2-26.07,9.89-33.17,44.89-13.91,65.43,9.85,10.5,22.59,16.52,35.38,22.41,27.82,12.81,56.66,23.43,83.26,38.87,18.09,10.51,35,22.42,48.63,38.56C916.32,731.77,923.71,761.37,923.27,793.51Z"/></svg>