<svg xmlns="http://www.w3.org/2000/svg" viewBox="0 0 1000 1000"><defs><style>.cls-1{fill:#33373f;}</style></defs><g id="Layer_2" data-name="Layer 2"><path class="cls-1" d="M897.23,806.5a140.06,140.06,0,0,1-29.63-63.35C864,725,856.49,708.89,839,699.89c-4.86-2.49-5.34-5.07-4-10,19-67.23,2.67-129.15-28.21-189.06-25.15-48.75-61.23-89.61-94.45-132.49-30.23-38.94-46-81.81-43.13-132.09,2.53-43.74.6-87.71-10.91-130.46-14.11-52-43.23-90-98.75-102.17-18.2-4-36.72-4.13-55.17-3.1C430.74,4.69,385.81,40.1,371,106.34c-7.57,33.75-8.34,68-5.16,98,.65,13.4.88,22.37,1.55,31.32,4.63,63-12.9,118.53-53.37,167.26-29.7,35.79-56,74.08-77.15,115.63-25.36,49.88-45,101.31-38.89,159,.26,2.43,0,5.85-1.42,7.41-18.81,19.73-30.78,45.65-61.45,54.15-36.93,10.19-47.45,31.68-42.17,69.85,2.78,19.7,5.29,38.84-1.38,59.17-14.87,45.37.4,67.85,47.72,75.12,2.61.4,5.27.46,7.88.81,37,5,74.6,7.28,108.4,26.23,16.18,9.08,34.14,14.31,52.49,16.66,38,5,73.24,1.16,95.85-35.57,2.36-3.84,5.26-4.2,9-4.88,52-9.76,104-18.39,157-6.19a75.71,75.71,0,0,0,23.64,1.4c10.31-.92,15.41,2.32,20.05,12.16,15.33,32.41,41.93,48.31,77.78,45.94,38.13-2.52,67.41-22.8,91.87-50.5A175.07,175.07,0,0,1,836.64,908c14.62-7.31,29.41-14.31,43.76-22.12C918.22,865.35,924.43,839.89,897.23,806.5ZM495.16,182c2.63-9.71,6.54-18.9,13.11-26.65,20.24-23.87,51.58-22.77,70.05,2.53,14,19.12,16.75,40.74,11.81,63.17-5.88,26.76-10.74,28.83-36.39,17.52,12-15.74,12.28-31.87,5.29-48.43-2.94-7-7.87-12.74-16.17-13.44-9.21-.79-14.25,5.39-18.66,12.27-6,9.32-5.5,20-6.2,30.55C490.24,213,487.84,209,495.16,182ZM396,161.73c12.71-17.6,30.6-18.61,45.3-2.41,12,13.29,15.41,29.69,15.49,46.93.07,12.23-12.2,9-19.39,16.47-.5-12.34-.83-21.35-5.78-29.28-3.15-5.05-6.87-9.92-13.54-9.26s-9.77,6-11.52,11.73c-4.1,13.22-3.78,26.51,4.38,37.85,4.69,6.55,1.85,8.66-2.66,12.3-5.88,4.79-8.12.26-11-3.46C381.83,222.45,381.18,182.24,396,161.73Zm4.9,99c10.09-7.59,19.89-15.62,29.47-23.86,13.25-11.39,28.12-18.42,47.65-18.69,2.95.45,8,.2,12.24,2,30,12.74,60.19,25,89.38,39.31,14.67,7.2,16.79,22.83,7.74,36.69a59.74,59.74,0,0,1-29.07,23.58c-15.9,6-30.27,14.64-44.81,23.23-29.4,17.38-55.82,14.82-81.08-8.07-10.27-9.26-22.58-15.57-32.95-24.5C378.21,292,378.88,277.26,400.92,260.68ZM392.24,945.4c-10.76,20-32.1,30-62.25,30-21.56.49-42.72-3.91-61.21-13.89-38.27-20.63-79.58-26.85-121.73-30.81-1.57-.14-3.17-.18-4.73-.4-39.82-5.47-51-21.5-37.8-59.48,7.57-21.82,4.53-42.53,1.53-63.9-4.55-32.49,3.13-46.08,34.37-56,21.67-6.92,38.61-18.73,50.7-37.88a102.54,102.54,0,0,1,9.54-12.61c18.75-21.5,41.91-22.78,63.71-4.11,14,12,22.36,27.91,30.56,43.82,19.69,38.06,41.39,74.69,69.69,107.17,7.93,9.1,14.44,19.5,21.09,29.63C399.9,898.5,405.29,921.24,392.24,945.4ZM616,857.53c-61.52,39.82-125.71,55-196.37,24.44-23.83-10.3-33.8-31.9-50.93-50.93,14.3-2.52,27.42-4.94,31.92-18.57,4.88-14.77-1.08-28-8.82-40.34-14.59-23.22-35.12-40.56-57-56.43-5.12-3.71-10.52-7-15.81-10.5C262.71,668.38,248,630,265.09,564.83c3.88-14.82,8.76-29.22,16.25-42.65,7.49-22.65,21.4-41.81,32.73-62.37l3.57,1.69-33.2,67.24c-8,27.38-15.82,54.74-10.29,83.83,2.87,15.14,7.4,29.48,18.63,44.27,1.09-8.33,2.07-14.56,2.69-20.82,4.47-44.67,19.66-85.93,38.72-126.22,24.3-51.42,48.3-103.06,59.47-159.4,1.92-9.67,3.22-19.45,4.89-29.69,12.83,5.41,22.29,13.89,31.54,22.4,20.25,18.73,44.76,24.55,68.89,13.82,31.92-14.18,64.62-28,92.88-50.86,4.83,1.81,3.17,7.67,4.39,11.66A1069.13,1069.13,0,0,0,671.9,503.15c16.67,31.86,29.63,65.27,36.52,100.59,2.16,11,7.84,12.57,17.05,13.73,11.6,1.44,10-7.71,11.33-13.15,9.33-39.11-.93-75.09-18.91-109.6-2.91-5.56-6.16-11-9.26-16.48l-29.83-35,3.36-3.06c11.55,9.91,21.87,21,29.77,34.51,30.47,41.77,49.13,87.15,41.36,140.07-1.26,8.63,1.74,12,8.9,15.3,13.45,6.1,26.34,13.4,37.27,23.56,9.26,8.62,15.29,18.8,13.81,32.13-.36,3.29-1,6.75-4.87,7-5,.36-4-3.82-3.82-6.68.77-12.69-6.34-21-15.86-27.35-21.67-14.49-44.45-26.54-71.48-26.61-17,0-27,7.3-30.75,23.61-1.7,7.41-5,11.69-11.6,15.23-18.64,9.95-27,27.58-32.1,46.89a220.43,220.43,0,0,0-7,48.47c-.92,26.46-3.79,52.57-12.37,77.78-1.66,5.11-2.55,10.32-7.47,13.49Zm269.22,9.54c-15.18,9.42-31.49,17.07-47.5,25-24.86,12.33-46.86,28-65.24,49.14-20.18,23.22-44.85,39.82-76.07,44.95-41.67,6.85-77.24-23.62-75.87-65.65.34-10.47,1.3-21.37,4.52-31.22,15.86-48.44,24.07-98.15,27.09-148.88A94.68,94.68,0,0,1,662,704c4.51-9.1,10.33-17,20.55-21.78,2.78,9.63,4.55,19,8.19,27.47C702,736,722.74,745,750,736.25c13.75-4.42,25.93-11.76,37-20.89a40.33,40.33,0,0,1,61.3,12.41,6,6,0,0,1,.62,1.45c7.87,37,24,69.94,46.77,100.44C906.31,844,901.39,857,885.2,867.07Z"/><path class="cls-1" d="M504,316.68c-40,18.24-98-1.77-109.26-42.4,30.13,34.54,61.47,55.78,105.18,39.17C501.52,314.2,503.57,314.42,504,316.68Z"/><path class="cls-1" d="M504,316.67l-4.13-3.22c24.75-10.36,47-24.71,68.09-41.23C552.29,295,529.14,307.19,504,316.67Z"/><path class="cls-1" d="M444.05,241.85c6.24-6.27,11-8.87,19.26-5.48C457.65,241.15,453.33,245,444.05,241.85Z"/><path class="cls-1" d="M505,242.27c-8.5,2.78-11.78-3-20.87-4C495.37,233.24,500.59,234.56,505,242.27Z"/></g></svg>