<svg xmlns="http://www.w3.org/2000/svg" viewBox="0 0 1000 1000"><defs><style>.cls-1{fill:#141414;}</style></defs><g id="Layer_2" data-name="Layer 2"><path class="cls-1" d="M711.19,374.24c-21.57-97.81-64.23-186.43-134-260C548,83.42,518,53.59,502,13.07c-1.83-4.4-1.94-9.9-8.73-13.07V15.42h.07q-6.08,12-12.17,24.09h0c-2.17,2-4.27,4.08-6.53,6C339.77,159,277.35,307.3,274.92,480.22c-2.33,165.66,74.89,294.48,201.35,396.55h0c.47,2.93,2.76,3.6,5.14,4.14h0a1024.46,1024.46,0,0,1,12.43,105.93c.53,8,2.15,13.07,11.82,13.15,8.82.07,11.26-2.73,12.41-11.72,5-39.11,10.73-78.16,20.65-116.43h0c14.92-10.69,29.61-21.67,42.41-34.89C707.76,706.14,750.13,550.84,711.19,374.24Zm-205.87,408-.05-.1.05,0Z"/></g></svg>