<svg xmlns="http://www.w3.org/2000/svg" viewBox="0 0 1000 1000"><defs><style>.cls-1{fill:#88bd31;}</style></defs><g id="Layer_2" data-name="Layer 2"><path class="cls-1" d="M59.27,500.16c0-73.45.57-146.9-.3-220.34-.29-25,9.8-41.08,31.06-53.24Q278.41,118.8,466.12,9.87C490-4,511-2.85,534.56,10.84Q720.1,118.77,906.64,224.92c24.27,13.77,34.54,32.2,34.49,59.18q-.45,215.45.08,430.89c.09,27.37-10.75,45.81-34.51,59.42Q720.47,881.17,535.05,989.28c-24.25,14.14-45.71,14.47-70.55-.07Q279.27,880.82,92.67,774.75c-23.91-13.63-34.39-31.2-33.86-59.15C60.18,643.81,59.27,572,59.27,500.16Z"/></g></svg>