<svg xmlns="http://www.w3.org/2000/svg" viewBox="0 0 1000 1000"><defs><style>.cls-1{fill:#010101;}</style></defs><g id="Layer_2" data-name="Layer 2"><path class="cls-1" d="M942.6,501.27c0,68.25-.32,136.5.14,204.75C943,741.6,929,767,897.39,785.2q-171.66,98.55-342,199.44c-33.79,20-65.21,21-98.59,0C420.76,962,383.68,940.92,347,919.16c-4.71-2.8-11.45-5.37-11.29-10.95.19-6.49,8.14-6.11,12.91-8.22,6.26-2.77,14-3.45,19-7.57,24.87-20.41,46.82-13.45,69.78,4,14.12,10.74,31.32,17.4,45.66,27.91,14.83,10.88,26.51,10.22,42.5.79q166.07-97.92,333.44-193.57c13-7.45,17.79-15.48,17.72-30.61q-1-200.61-.09-401.23c0-13.78-3.29-22.25-15.94-29.53Q691,172.52,522.08,73.3c-12.37-7.27-21.44-7.36-33.81-.19Q314.41,174,139.83,273.66c-11.27,6.45-16.73,13.55-16.67,27.46q.82,199.58,0,399.15c0,13.66,4.44,21.3,16.1,27.68,28.94,15.82,57.15,33,85.93,49.09a120.38,120.38,0,0,0,24.65,10.16c36.43,10.81,63.77-9.16,63.85-47q.33-165.45.08-330.91c0-24.82.54-49.65-.23-74.44-.36-11.43,4-19.72,14-22.55,16.7-4.75,34.31-2.94,51.27-1.14,10.37,1.1,9.45,11.89,9.46,20.14q.06,64.11,0,128.23c0,93.76-.17,187.51,0,281.27.24,105.43-78.78,131.57-151.67,109.67C181.8,834,134.24,800.67,86.48,769.66c-20.4-13.25-29.23-35.82-29.22-60.91q.08-207.86,0-415.7c0-33.65,16.44-57.16,44.9-73.49q146.64-84.13,293.2-168.4,34.86-20,69.84-39.85C491.3-3.48,517.73-4,543.69,11.06q182,105.39,363.71,211.22c25.89,15.08,35,39.56,35.13,68C942.75,360.64,942.6,431,942.6,501.27Z"/><path class="cls-1" d="M615.46,707.93c-49.09-1-99.53-5.55-143.14-36.93-30.73-22.11-43.88-53.39-47-90.11-1.45-17.26,5.74-24.46,22.74-22.42a51.26,51.26,0,0,0,6.2,0c33.46,0,33.57-.07,43.76,32.08,6.68,21.06,19.75,36.32,40.87,43.13,51.22,16.51,102.88,15.53,154.51,1.84,5.19-1.38,10.12-4.37,14.68-7.35,16.76-11,22.06-27.25,20.82-46.45-1.2-18.51-14.81-25.66-29.38-30.62-42.07-14.3-86.45-15.41-130-21.48a366.08,366.08,0,0,1-67.94-16.19c-83.8-28.63-77.6-133.88-27.3-173.14,30-23.41,64.52-32.41,101.47-35.57,47.91-4.11,95.12-1.58,139.72,17.83,43.75,19,65.54,54.45,70.52,101.24,1.39,13-2.39,20-16.59,18.91-6.17-.47-12.51-.81-18.59.06-20.72,3-32.31-3-37.56-25.86-5.64-24.57-25.53-38.87-50.07-43.93a271.8,271.8,0,0,0-108.67-.64c-10.93,2.17-21,6.3-29.7,13.5-13.05,10.82-16.09,25-13.76,40.93,2.16,14.87,13.84,20,25.78,23.56,39,11.74,79.64,14.85,119.69,21,25.84,4,51.54,8.52,76.27,17.06,37.1,12.8,63.64,35.76,68.12,77.14,4.59,42.4-6.32,79.57-42,105.91C717,702.52,667.86,707.4,615.46,707.93Z"/></g></svg>