<svg xmlns="http://www.w3.org/2000/svg" viewBox="0 0 1000 1000"><defs><style>.cls-1{fill:#33373f;}</style></defs><g id="Layer_2" data-name="Layer 2"><path class="cls-1" d="M996.29,305.87q-496.3.17-992.54,0c-3.31,0-3.7.93-3.7,3.92q.06,164.37,0,328.7c1.13,1.46,2.73,1.78,4.44,1.85,2.64.11,5.28.08,7.91.08H267.62c7.22,0,7.92.7,7.94,7.78.05,13.15,0,26.31.06,39.46,0,2.32-.3,4.79,1.9,6.47H500c2.19-1.71,1.85-4.2,1.91-6.47.09-12.19,0-24.38,0-36.56,0-10.69,0-10.69,10.9-10.69H987.12c2.77,0,5.56,0,8.33-.08,1.71-.08,3.31-.39,4.44-1.85q0-164.36.06-328.7C1000,306.82,999.56,305.87,996.29,305.87ZM273.6,583.29c-15.68-.16-31.38-.19-47.06,0-3.63,0-4.25-1.16-4.24-4.46.1-52.36,0-104.73.15-157.1,0-3.89-.78-5.17-4.93-5.1q-23.15.39-46.23,0c-4-.07-4.63,1.24-4.63,4.86.11,52.35,0,104.71.16,157.09,0,3.86-1,4.73-4.78,4.72q-51-.22-102,0c-3.51,0-4.32-1-4.31-4.39.12-35.59.07-71.2.07-106.79s0-70.93-.08-106.38c0-3.51.92-4.29,4.36-4.28q106.83.15,213.66,0c3.31,0,4.1.92,4.09,4.11q-.15,106.8,0,213.6C277.77,582.46,276.84,583.33,273.6,583.29Zm277,0c-33.73-.16-67.47,0-101.2-.2-4.37,0-5.22,1.27-5.16,5.34.24,15.52,0,31,.16,46.54,0,2.87-.7,3.69-3.66,3.69q-51.86-.17-103.7,0c-3.33,0-3.76-1.11-3.75-4q.12-67.32.05-134.63c0-44.59.08-89.19-.1-133.79,0-4.16,1.19-4.85,5-4.84q106.19.18,212.4,0c4,0,5,1,5,5q-.23,106,0,211.91c0,4.12-1.11,5-5.07,5Zm389.15,0q-22.9-.3-45.82,0c-3.9.06-5.1-.77-5.08-4.91q.24-78.14.11-156.27c0-5.37,0-5.37-5.31-5.37-15.13,0-30.27.13-45.37-.1-3.9-.06-5.09.74-5.06,4.89.15,52.22,0,104.42.21,156.67,0,4.39-1.27,5.15-5.28,5.09q-22.7-.36-45.37,0c-3.92.06-5.13-.8-5.11-4.94q.23-78.15.1-156.26c0-5.35,0-5.35-5.32-5.35-15.15,0-30.28.12-45.38-.09-3.76,0-4.86.87-4.85,4.75.14,52.22,0,104.42.2,156.67,0,4.24-1.07,5.25-5.25,5.22q-50.82-.25-101.64,0c-3.37,0-4.46-.75-4.46-4.3q.18-106.61,0-213.2c0-3.48.93-4.33,4.37-4.33q81.23.17,162.45.07,81,0,162-.09c3.7,0,4.52.92,4.5,4.55q-.17,106.39,0,212.78c-.06,3.75-1.08,4.59-4.68,4.54Z"/><path class="cls-1" d="M500,472.64c0,17.18-.07,34.36.06,51.54,0,2.77-.52,3.8-3.58,3.76q-24.36-.24-48.73,0c-2.78,0-3.47-.83-3.47-3.5q.12-51.95,0-103.9c0-2.78.62-3.86,3.65-3.83q24.36.21,48.74,0c2.88,0,3.39,1,3.38,3.58Q500,446.45,500,472.64Z"/></g></svg>