<svg id="Layer_1" data-name="Layer 1" xmlns="http://www.w3.org/2000/svg" viewBox="0 0 1000 1000"><path d="M998.42,410.65c-5.27-50.87-23.44-95.81-61.64-130.92-20.15-18.51-43.95-29.79-72.15-29.67-25,.12-50-.05-75,.06-14.46.07-16.52,2.08-16.58,16.31-.12,32.77-.31,65.55.07,98.32a185.74,185.74,0,0,1-7,53.43c-10.23,35.88-30.41,63.71-65,80-23.53,11.05-48.69,13.23-73.91,13.4-79.15.53-158.3.11-237.45.24a144.09,144.09,0,0,0-68,17.14c-44.16,23.5-64.86,61.76-65.23,110.87-.6,78-.15,156.08-.17,234.12,0,24.28,9.49,44.69,25.34,62.49,19.57,22,44.66,35.05,71.84,45.1C393.8,996.4,435.75,999,478,999.47c32.46.38,64.91,0,97.36-1.52,43-2,84.22-11,121.92-32.25,33.31-18.8,52.48-46.12,51.7-86.4-.58-29.68-2.61-59.32-2.09-89,.35-19.4-.72-20.19-20.15-20.2q-104.55,0-209.12,0c-11.26,0-12.13-.94-12.3-11.59-.27-15.92-.1-16.11,16.11-16.11q152.05,0,304.11,0c11.59,0,23,1.54,34.79.3,35.34-3.71,65-18.55,88.9-44.21,22.33-24,35.93-53.09,44.69-84.59,4.12-14.81,3.75-30.11,6.08-45.1v-140C998.32,422.8,999,416.67,998.42,410.65ZM640.19,834.31c24.26.37,43.26,20,43.16,44.48a43.78,43.78,0,1,1-87.56-1.1C596.16,853.5,616.18,834,640.19,834.31Z"/><path d="M743.3,235.38h0c.2-37.44,1-74.88.4-112.3-.37-23.34-10.24-43.3-26.87-59.78-2.44-2.61-4.63-5.52-7.36-7.78A199.86,199.86,0,0,0,623.31,14c-19.53-5.39-39.54-7.9-59.59-10.4C552.5,2.18,541.07,3.15,530,.39H456.67c-1.2,2.27-3.4,1.43-5.19,1.53C425.74,3.41,400.18,6.4,375,12.15c-29.59,6.77-58.17,16.28-82.36,35.44-18.39,14.57-32.52,32.46-32.91,57.1-.59,38.28.07,76.57.08,114.86,0,4,.62,6,5.35,5.93q77.4-.36,154.8-.37c25.55.1,51.09.32,76.64.18,5,0,7,1.26,6.62,6.52a102.72,102.72,0,0,0,0,18.31c.89,8.05-1.94,10.2-10,10.13-37.76-.32-75.52.06-113.28.19h0c-3.6-.12-7.19-.34-10.79-.34-69.33-.08-138.67.22-208-.33-45.87-.37-82.83,17.35-111.33,52.67C22.78,346,11.19,385.93,5,427.74,3,441.9,1.66,456.16,0,470.38v56.67c2.28,4.39,1.24,9.17,1.58,13.78,2.1,28,5.74,55.81,13.85,82.84,9.81,35.52,25.26,68,53.34,92.82,19.57,17.33,42,28.92,69,29.06,9.91,1.42,19.87.32,29.79.63a7.45,7.45,0,0,0,5.81-2.78c17.18-18.78,36.51-35.46,53.22-54.7q.18-29.07.35-58.15c0-6.35-.76-12.82.2-19,3.46-22.29,8.72-44.12,19.69-64.15,2-7.76,6.94-13.51,12.74-18.68l20.46-20c8.37-4.4,14.11-13.76,25.06-13.27l6.6-2.16a172,172,0,0,1,41.71-8.21q127.31-.23,254.62-.5a170.86,170.86,0,0,0,41.84-5.82c52.2-13.32,85.79-48.19,91.82-101.24C747,330.38,743.41,282.77,743.3,235.38Zm-379-70.27c-23.86,0-44-20.07-44-43.94a44.27,44.27,0,0,1,43.9-43.95c24,0,44,19.89,44,43.83S388.15,165.08,364.27,165.11Z"/></svg>