<svg xmlns="http://www.w3.org/2000/svg" viewBox="0 0 1000 1000"><defs><style>.cls-1{fill:#010101;}</style></defs><g id="Layer_2" data-name="Layer 2"><path class="cls-1" d="M501.23,0C224.54-.11.06,223.37,0,499c0,276.67,223.91,501.12,499.94,501,275.82-.1,500.14-224.54,500.06-500.33C999.91,224.75,775.68.11,501.23,0ZM928.39,284.64c30.51,61.14,47.19,124.58,50.54,192.7-25.95-39.25-66.21-54.5-106.76-68.73-39.5-13.87-80.33-22.82-121.62-29.64-3.07-.5-6.09-1.28-9.14-1.94,24.7-5.64,49.11-11.52,73.18-18.73s47.91-15.84,69.87-28.57C902.9,319,919.44,306.35,928.39,284.64ZM492.12,444.49q-14.3-21.51-28.56-43c-1.14-1.72-2.16-3.52-3.46-5.64,20,0,39.33,0,58.67,0a1312.91,1312.91,0,0,0,132.13-6.94c20.32-2.08,39.88,2.08,59.62,4.6a858,858,0,0,1,114.94,22.45C862.82,426,899.52,437.81,932.4,459c8.79,5.66,16.91,12.21,23.18,20.78,10.07,13.77,10.14,26.69-.17,40.38-10.93,14.5-26.08,23.6-41.81,31.76-29.54,15.32-61.1,25.08-93.16,33.47-35.81,9.37-72.17,15.89-108.75,21.12-16.83,2.41-33.72,5.92-50.74,5.33-19.56-.67-39-3.2-58.58-4.74-3-.24-3.77-2.38-5-4.24Q544.72,523.68,492.12,444.49ZM574,605.58c-32.2-1.85-63.54-1.39-94.86-1.17a1072.54,1072.54,0,0,0-121.24,7.43c-16.75,2-33.17-.67-49.57-2.72-30.58-3.81-61-8.56-91.21-15-39.25-8.39-78-18.39-114.88-34.66-17.37-7.66-34.16-16.37-48.34-29.25-8.76-8-16.49-16.67-16.93-29.57-.39-11.21,5.36-19.5,12.64-26.92,15.05-15.31,33.8-24.9,53.14-33.43,36.28-16,74.42-25.94,113-34.24,33.9-7.28,68.27-11.71,102.55-16.73,21.6-3.16,42.85-.48,64.23,1.38,15.5,1.35,31,2.42,46.56,3.31,3.53.2,5.71,1.17,7.72,4.21q67.84,102.4,135.89,204.69A28.51,28.51,0,0,1,574,605.58ZM905.55,257.26c6,9.66,5.81,19.28-.41,28.75-7,10.6-17,17.81-27.65,24.14-26.55,15.7-55.58,25-85.08,33.18-35.91,9.9-72.61,15.7-109.32,21.53-16.39,2.6-32.67,1.35-49-.19-28-2.66-56.14-4-84.27-4.73q-54.39-1.38-108.79.26c-3.61.11-5.59-.92-7.63-4q-49.09-74.26-98.56-148.27c-2.31-3.46-3-5.74,0-9.19a33.91,33.91,0,0,0,7.73-17.24c.7-4.63,3-5.31,6.65-5.62,20.37-1.78,40.72-3.94,61.11-5.35,31.93-2.21,63.91-3.16,98.34-2.89,36-.51,74.39,1,112.63,4.19,66.81,5.65,133.07,14.87,197.21,35.51,23.69,7.62,46.8,16.61,67.49,30.82C893.68,243.35,900.61,249.31,905.55,257.26ZM543,39.25c17.58,1.86,34.88,4.94,51.25,12,3.86,1.66,9.43,3.19,9.47,7.44s-5.54,5.94-9.35,7.65c-20.48,9.16-42.37,12.13-64.42,14-10,.86-20,1-29.75,1.38-31.14-1.11-62-2.34-91.32-13.57a65.16,65.16,0,0,1-9.64-4.81c-4-2.39-4-5-.07-7.7,8.05-5.44,17.16-8.45,26.4-10.68C464.28,35.57,503.52,35.09,543,39.25ZM401,31c-5,3.3-10.54,5.86-15.26,9.7-14,11.36-13.82,26.51.7,37.42,12.16,9.14,26.43,13.37,41,16.58,32.92,7.24,66.29,8.73,99.78,6.36,25.25-1.79,50.34-5.1,73.82-15.57a52.28,52.28,0,0,0,16.4-10.87c9.41-9.62,9.33-21.53-.14-31.13C611.91,38,605,34.69,598.51,30.89,714.79,56.31,809,116.55,881.82,210.75,845.41,192.2,806.56,181.21,767,172.33c-25.51-5.73-51.27-10-77.17-13.62-27.22-3.79-54.55-6.4-81.93-8.41q-30.3-2.22-60.7-2.87c-46.5-1-93-.59-139.42,2.56-20.6,1.4-41.14,3.71-61.68,5.94-3.64.4-4.51-.87-5.84-3.81-8.68-19.25-23.78-29.8-44.84-30.36-25.64-.69-46.57,18.87-49.36,45.57-.42,4-1.59,5.08-5.38,6-38.23,9-76,19.43-110.85,38.32-7.58,4.11-14.71,9-22.08,13.44C180.78,123.08,278.35,58.1,401,31ZM108.54,254.35c10.62-14,25.63-22.29,41-29.7,30.9-15,63.75-24.15,97.08-31.81,3.4-.78,4.76,0,6.5,2.85,12.51,20.22,34.67,28.4,57.46,21.33,3.08-1,5-1.38,7.27,2q45.84,69.51,92,138.77c.56.84,1,1.78,1.76,3.27-4.31.45-8.06,1.09-11.82,1.18-16.43.37-32.75,2.14-49.09,3.57C337.15,367,324,363.92,310.77,362A772.82,772.82,0,0,1,229,345.79c-32.91-8.55-65.31-18.49-94.85-35.94-9.57-5.65-18.53-12.11-25.34-21.12C99.85,277,99.67,266.08,108.54,254.35ZM81.43,265.93c.6,7.28.2,13.54,2.39,19.48,6.55,17.76,20,29.36,35.16,39.22,24.07,15.65,50.82,25.32,78.08,33.58A645.59,645.59,0,0,0,261.25,374c1.81.36,3.56,1.05,6,1.8-52.63,8.45-103.9,19-153.23,37.46-25.76,9.62-50.59,21-71.85,38.94a96.11,96.11,0,0,0-21.31,26C24.81,402,44.66,332.23,81.43,265.93Zm2.45,448.66c-2.19,5.88-2.08,12-2.17,19.68C44.6,667.51,24.76,597.44,20.87,521.45,29.46,536.87,41.12,548,54.68,557.2c21.41,14.58,45,24.69,69.3,33.09,43.44,15,88.11,25.05,133.49,32,2.93.46,5.82,1.17,10.07,2-14.44,3.3-27.49,6-40.42,9.28C190,643,153.49,654,120.69,674.46,104.8,684.4,90.73,696.2,83.88,714.59Zm24.75-3.23c8.37-11.22,19.9-18.5,31.91-25C167,672,195.46,663,224.42,655.35c37.66-10,76-16.07,114.56-21.33,6.37-.87,12.73.31,19.11.86q25.16,2.18,50.4,3.54c49,2.66,98.09,2.67,147.16,1.63q17.6-.36,35.15-1.65c3.91-.28,6.18.72,8.33,4q45.93,69.5,92.11,138.8c1.75,2.62,2.25,4.28.08,7.09A46.28,46.28,0,0,0,681.44,818c.06,3.51-1.32,4.11-4.29,4.49-24.94,3.22-50,5.51-75,7.21-32.15,2.17-64.33,3.2-98.59,2.72-31.49.76-65-.54-98.37-2.94-52.66-3.77-105.06-10.11-156.63-21.7-39.6-8.9-78.64-19.75-114.11-40.43-9.8-5.71-19-12.21-25.86-21.49C99.75,733.85,99.79,723.21,108.63,711.36ZM441.9,958.72c-13.58-2-27.06-5.26-39.45-11.65-2.57-1.32-6.15-2.58-6.15-5.84s3.54-4.53,6.12-5.88c17.07-8.87,35.72-12,54.46-14.45,14.38-1.89,28.87-2.41,46.05-2.48,27.16.58,56.82,2.41,85.38,12.22a56.41,56.41,0,0,1,12.6,6c4.07,2.66,3.76,5.08-.07,7.61-9.93,6.53-21.17,9.75-32.57,12.17C526.33,965.3,484.11,965,441.9,958.72Zm314.57-53.87c-46.53,30-108.71,55.41-157.24,64,5.16-3.23,9.88-5.74,14.1-8.92,14.9-11.19,14.95-27.12,0-38.28-13.8-10.33-30.13-14.46-46.64-17.66-35.84-6.95-72-7.72-108.18-3.81-23,2.48-46,6.1-66.54,17.95-22.16,12.77-22.2,32.22-.24,45.31,3.06,1.82,6.25,3.4,10.13,5.49-107.66-20.51-223.75-90-295.8-196.45,16.7,12.91,33.74,21.67,51.59,28.94,32.94,13.4,67.2,22.26,101.95,29.3,31.89,6.47,64.1,10.85,96.46,14.45,63.51,7.06,127.19,8.5,191,7.25,34.54-.67,69-3.18,103.39-6.3,10.59-1,21.15-2.33,31.66-3.91,4.14-.63,6.28.6,8.82,4,12.08,16,28.32,22.87,48.13,19.35,18.16-3.22,31.27-13.84,36.87-31.38,2.49-7.83,6.65-10.13,13.63-11.84,31.32-7.67,61.83-17.73,90.89-33C872,810.83,803.14,874.75,756.47,904.85ZM901.19,748.48c-11.72,13.14-26.85,21.34-42.49,28.7-24.46,11.49-50.17,19.33-76.24,26.14-3.63.94-5.26.3-6.49-3.26-7.58-22-34.86-38.63-62-28.42-2.6,1-4.24.57-5.83-1.84q-43.82-66.22-87.72-132.38c-.08-.11.11-.4,0-.1,31.17-6.08,61.79-3,92.53,2.51,28.23,5,56.35,10.29,83.95,18.06,29.66,8.35,58.72,18.22,85,34.84a84,84,0,0,1,19.94,16.79C912.76,722.53,912.61,735.68,901.19,748.48Zm27-33.77a72,72,0,0,0-18.21-26.12c-14.57-13.48-31.75-22.72-49.76-30.47C824.94,643,788,633.37,750.49,626c-3.2-.63-6.37-1.49-9.55-2.25,22.86-4.71,45.49-8.92,67.89-14.27,42.79-10.22,84.93-22.35,123.53-44.19,18.3-10.36,34.8-22.89,45.63-42C982.29,563.57,954.67,669.83,928.15,714.71Z"/></g></svg>