<svg xmlns="http://www.w3.org/2000/svg" viewBox="0 0 1000 1000"><defs><style>.cls-1{fill:#141414;}</style></defs><g id="Layer_2" data-name="Layer 2"><path class="cls-1" d="M156.13,74.51c4.81,0,9.44-.21,14,.07s5.53-1.62,4.32-5.66a94.17,94.17,0,0,0-11.76-24.56l-5.34-8.12c16.09-1.31,31.54.5,47.24-1.49-2.31-5.78-7.71-7.95-10.09-13,15.06-4.86,29.27-.5,43.6,2.45,3.42.7,7.44,5.22,10.46.39s-1.71-8-4.41-11.31c-.9-1.11-2.48-1.72-2.47-3.9a190.69,190.69,0,0,1,37,8.75c2.18.72,4.7,3,6.55-.12,1.56-2.6.72-5.34-1.35-7.45-2.56-2.6-5.3-5-7.54-8.17,9.39,0,17.76,3.1,25.95,6.64,4.73,2.05,9.19,4.73,13.77,7.15,1.84,1,3.59,3.31,5.82,1,2-2.05,3-4.75,1.78-7.49-1.39-3-3.29-5.87-5.49-9.68,12.15,3.64,21,11,30.24,17.78,2.51,1.85,4.38,7.13,8,4.53s6.1-7.19,4.06-12.47a37.75,37.75,0,0,1-.93-3.9c10.74,5.21,18.25,12.72,25.62,20.45,1.59,1.66,2.42,5.33,5.15,4.4,3.08-1.05,4.71-4.3,4.95-7.7.21-2.86.05-5.75.05-9.95,9.88,8.23,17.52,16.82,25.13,25.45,1.79,2,3.69,4,5.35,6.13,2.81,3.62,4.72,2.67,6-1.09,1.1-3.16,2-6.39,3.18-10.31,11.16,9.68,19.18,21.15,26.59,33,10.63,17.06,18.39,35.16,20.66,55.46A56.41,56.41,0,0,1,451,179.05c-3.85,1.89-5.82.26-8.4-1.82-38.06-30.64-79.84-55.25-124.1-75.71A662,662,0,0,0,255.58,75.9c-2-.69-3.94-2.23-7-.92,13.53,7.42,26.73,14.45,39.73,21.83,44.91,25.49,88.86,52.39,126.93,87.79,2,1.85,4,3.68,5.92,5.6,10.37,10.37,10.28,10.72,3.75,24.13-9.35,19.23-24.84,31.65-44,39.76-25.67,10.84-52.69,13.58-81.87,13,3.4-2.92,5.73-4.84,7.95-6.88,1.46-1.33,3.17-2.85,2.5-5s-3-2.35-4.91-2.57c-9.3-1.1-18.62-2.13-27.95-3a58.29,58.29,0,0,1-18.89-5.48c3.72-3.39,9.48-3.84,11.44-9.4-15.54-6-32.44-9-47.86-19.91,7.19-1.22,13.19-.22,18.29-4.93-14.92-9.51-31.94-15.36-45.13-28.28,5.68-3.45,12.59,0,18.28-4.58-13-8.85-25.47-17.89-37.35-30.46,5.21,0,8.84.27,12.39-.11,1.8-.2,4.4-.2,5.23-2.15,1-2.34-1.7-3.25-3-4.52-7.29-7.36-15.55-13.75-21.95-22-2-2.53-4.07-4.94-5.07-8.35,5.41-.15,10.45,2.44,15.91.94,5-1.38,6.37-3.07,2.21-7.11-6.71-6.52-14.71-11.71-20.21-19.5C159,81,156.53,78.46,156.13,74.51Z"/><path class="cls-1" d="M576.43,33.46c.8.44,1.07.49,1.12.63C582.82,49,582.83,49,593.11,37.36c7.3-8.28,14.46-16.71,24.14-24.11.36,5.18-1.15,9.69,1.09,13.67,2.13,3.8,4.13,5.92,8,1.06a81.81,81.81,0,0,1,26-21.93c-.09,4.74-1.48,8.79.85,12.88s4.17,5.23,8.09,1.63c8.38-7.7,17.55-14.38,28.15-18.83,1.22-.52,2.33-2.12,4.3-.61a67.66,67.66,0,0,0-4.4,7.35c-1.4,3.1-1.23,6.46,1.42,8.83s4.61-.53,6.48-1.68c11.89-7.27,24.7-11.86,40-14.41-3.73,4.08-6.56,7-9.12,10.05-1.6,1.94-2.7,4.21-.82,6.74s3.85,1,5.92.3a210.35,210.35,0,0,1,38.78-9.21c-3.06,3.61-5.57,6.28-7.7,9.22a5.82,5.82,0,0,0-.09,7c1.71,2.49,3.9,1,6,.4,15.62-4.21,31.2-9,48.65-3.82L806.86,34.53c16.62,2.18,32,.57,48.21,1.53C849,45.64,843,54.55,839.39,64.77c-3.4,9.68-3.27,9.94,6.69,9.73,3.36-.07,6.72,0,10.82,0-3.55,8.92-9.77,14.8-16.16,20.54-3.3,3-6.74,5.79-10,8.82s-2,4.78,1.69,6.18c5.58,2.12,11-.8,17.11-.33-5.27,10.26-13.64,17.21-21.39,24.69-3.14,3-9.52,6.43-8.31,9.35,1.9,4.58,8.54,2.8,13.32,3a21.48,21.48,0,0,1,2.71.57c-5.08,6.33-11,11.1-16.88,15.78s-12.24,9-19,13.95c5.52,4.22,11.93,1.66,18.14,4.26-13,13.06-29.82,19.08-45.09,28.25,4.85,5,10.91,4.25,17.55,4.82-6.15,6.41-13.58,8.37-20.46,11.11-7.09,2.81-14.45,5-21.7,7.35-1.78.59-4.6.58-4.55,2.67,0,1.47,2.17,3.16,3.72,4.24,2,1.38,4.3,2.25,7.38,3.78-9.42,5.48-19.25,6.31-29,7.29-5.9.59-11.81,1-17.69,1.63-2.1.24-4.79.52-5.43,2.85-.52,1.93,1.28,3.63,2.75,4.93,2.2,2,4.57,3.73,8.53,6.91-6.32,0-11,.17-15.73,0-28.83-1.27-57-5.33-82.07-21.12a76.92,76.92,0,0,1-32-39.48c-1.76-4.74-1.17-7.89,2.45-11.61,24.42-25.14,52.52-45.55,81.73-64.6,30.37-19.82,62.06-37.36,94-54.46a13.06,13.06,0,0,0,3.58-2.55c-18.14,5.28-35.58,12.36-52.91,19.74-51.28,21.82-99.46,49-142.92,84.06-4,3.25-7,3.08-11.13.65-23.37-13.78-33.29-36.59-27.78-63.67C537.81,82.29,554.83,56.59,576.43,33.46Z"/><path class="cls-1" d="M528.8,504.7c-.1-44.59,21.94-80.33,61.2-96.11,31.3-12.59,62.49-8.46,91.15,7.93,52,29.77,79.1,75.25,75.8,135.52-3.08,56.51-46.55,96.74-103.36,93-34.62-2.28-63.16-18.32-86.23-43.74C542.59,574,529,541.93,528.8,504.7Z"/><path class="cls-1" d="M253.05,547.67c.37-64.13,45.25-121.49,107.22-137C416.4,396.58,470.43,432,479.94,489.17,491.83,560.65,442.38,633.62,371.59,649c-56.24,12.25-109.28-24.74-117.16-81.48A135.53,135.53,0,0,1,253.05,547.67Z"/><path class="cls-1" d="M505.4,629.86c53.46-.11,99.2,29.94,115.86,74.76,17.17,46.18-.75,99.25-42.48,125.76-49.61,31.52-106.88,28.54-152.81-8s-51.66-107.27-12.24-151.1C438.79,643.46,470.48,630.65,505.4,629.86Z"/><path class="cls-1" d="M820.87,751.15c1,48.22-21.8,84.51-57.65,113.91-22.34,18.33-47.85,29.2-77.18,29.38a68.74,68.74,0,0,1-16.85-1.94c-20.57-5.12-30.5-13.27-31.71-41.64-1.41-33.25,9.43-63.77,26.34-91.87,19.81-32.92,46.89-58.93,80.06-78.39a65.1,65.1,0,0,1,27.83-9.09c17.64-1.46,30.51,5.91,37.89,22.13C816.82,709.51,820.87,729.85,820.87,751.15Z"/><path class="cls-1" d="M187.27,745.56c.27-8,.57-15.82,2.26-23.59,5.51-25.35,23.85-37.54,49.75-33,26.52,4.62,47.74,19.13,67.42,36.34,30.78,26.92,50.19,60.37,57,100.86,1.85,11,2.34,22.14.32,33.15-4,21.55-17.7,32-42.77,32.22-27.73.3-52.11-9.69-73.89-26.11C207.59,835.43,189.32,794.5,187.27,745.56Z"/><path class="cls-1" d="M508.31,397.78c-33.78-1.37-65.14-6.46-92-26.83a58.79,58.79,0,0,1-15.25-17c-7.37-12.41-7.05-24.4,1.75-35.87,19.94-25.95,47.11-40.68,78.58-46,45.28-7.64,85.14,5.62,117.8,37.86,24,23.72,19.65,51.28-9.51,68.62-18,10.7-37.77,15.34-58.27,17.53C523.33,397,515.17,397.31,508.31,397.78Z"/><path class="cls-1" d="M511,887.26c29.79.39,59,3.87,86.7,15.83a63,63,0,0,1,15.24,9c9.16,7.52,11,14.91,5.4,25.4-8.82,16.66-23.07,28.17-38.47,38.16-25.19,16.35-52.64,26.14-83.06,24.05-41.1-2.83-75.31-20.47-102.19-51.47-11.77-13.56-9.46-24.16,5.71-34.44,18.54-12.58,39.84-17.91,61.39-22A242.93,242.93,0,0,1,511,887.26Z"/><path class="cls-1" d="M785,535.93c.29-16.57.2-30.9,4.82-44.71,1.66-5,3.5-9.78,7.29-13.54,5-4.91,10.79-6.21,16.82-2.65,30.82,18.18,51,44.65,58.93,79.53,6.85,29.94,3.71,59.28-9.07,87.36a97.52,97.52,0,0,1-22,31.25c-6.89,6.45-12.84,6.64-20,.22-7.35-6.61-11.59-15.34-15.28-24.2-11-26.36-16.18-54.11-19.62-82.31C785.52,555.81,785.66,544.72,785,535.93Z"/><path class="cls-1" d="M214.56,537.19c-1.2,40.39-6.83,79.93-22.57,117.51a66.67,66.67,0,0,1-12.93,20.56c-7.24,7.6-14.12,7.87-21.63.54-19.71-19.27-29.83-43.44-32.74-70.22-5.68-52.4,11.83-95,56.49-124.83,12-8,20.36-5.44,26.46,7.81,5.05,10.95,6.23,22.73,6.87,34.57C214.77,527.8,214.56,532.5,214.56,537.19Z"/><path class="cls-1" d="M658.07,293.8c40.58.76,76.81,12.27,104.72,43.42,18.89,21.08,28.82,46.19,31.64,74.2.72,7.11,1.25,14.26,1.4,21.4.17,8.76-3,11.17-11.53,8.75-9.34-2.64-17.82-7.33-25.8-12.68-45.32-30.42-86.65-65.43-122.16-107a62.14,62.14,0,0,1-10.16-15.4c-2.81-6.46-1.45-9,5.35-10.14A163.58,163.58,0,0,1,658.07,293.8Z"/><path class="cls-1" d="M203.66,421.26c1.53-59.43,36.06-106.92,89.7-123.29a161.64,161.64,0,0,1,73.09-5c8.93,1.39,10.12,3.59,6,11.73-5.44,10.65-13.36,19.57-21.53,28.1-34.38,35.93-71.64,68.49-113.74,95.23a90.76,90.76,0,0,1-19.81,9.82c-11,3.69-14,1.54-13.67-9.95C203.71,425.7,203.66,423.48,203.66,421.26Z"/></g></svg>