<svg xmlns="http://www.w3.org/2000/svg" viewBox="0 0 1000 1000"><defs><style>.cls-1{fill-opacity:0.85;}</style></defs><g id="Layer_2" data-name="Layer 2"><path class="cls-1" d="M977,439.81c-12.68-16.41-28.11-30-45.07-41.82-41-28.66-86.37-48-133.86-62.84-6-1.88-8.24-3.72-6.6-11A553.55,553.55,0,0,0,805.14,207c-.27-5.78-.37-16.09-1.32-26.31-2.71-29.68-8.39-58.61-24.88-84.2-16.77-26-40.61-39.82-71.93-40.83C674.9,54.58,645.88,65,617.87,78.92c-41.74,20.75-78.37,48.8-112.44,80.3-4.42,4.09-6.72,4.75-11.52.23a485.28,485.28,0,0,0-55.06-44.93c-39.46-27.6-80.49-52-129.73-57.54-36.29-4.08-66.68,6.69-87.76,37.8-20.26,29.89-25.67,64.15-27.13,99.14-1.84,43.83,3.44,87.09,13.38,129.78,1.57,6.7.45,9.72-6.85,11.83a457,457,0,0,0-63.76,24C97.05,377.7,59.15,399,29.22,432.11-9.52,474.93-9.71,524,28.47,567.17c23.28,26.31,52.07,45.05,82.83,61.17,29.53,15.47,60.54,27.37,92.28,37.42,4.65,1.48,6.58,2.78,5.32,8.18-8.16,35.35-13.14,71.17-13.86,107.44-.73,36.66,2.11,72.88,17.56,107,18,39.65,48.55,58.18,91.84,55.92,27-1.41,51.77-10.44,75.7-22.1,42.73-20.81,80-49.5,114.77-81.41,5.07-4.65,7.7-3.81,12,.28a470.82,470.82,0,0,0,45.47,37.77c41.69,30.44,85.11,57.5,137.82,64.13,34.69,4.38,64.62-4.86,86.18-34,20.26-27.4,26.78-59.42,29-92.34,3.23-47.85-2.2-95.09-13-141.72-1.32-5.71.09-7.85,5.76-9.58a524.58,524.58,0,0,0,70-26.79C908,619.75,945.61,598,974.36,563.69,1007.59,524,1008.57,480.64,977,439.81ZM535.41,192.7C572.17,160,610.5,129.52,656.72,111c18-7.22,36.51-12.88,56.56-9.19a38.85,38.85,0,0,1,25.86,16.44c11.39,16,15.27,34.64,18.28,53.49,2.11,13.25,2.18,26.7,2.12,42.58.35,32.46-5.08,66.72-12.14,100.82-.88,4.25-2,4.81-6.13,3.84a878.68,878.68,0,0,0-117-20,15.66,15.66,0,0,1-12-6.88,894,894,0,0,0-76.1-91.37C533.79,198.2,531.23,196.42,535.41,192.7Zm-269,438.59c7.64-25.21,15.92-50.17,26.32-75.55,17,32.82,35.11,63.86,55.8,95.82-28.23-3.53-53.78-9-79.32-14.59C265.32,636.15,265.63,633.8,266.41,631.29ZM265.6,368.1c-1-3.26,0-4.21,2.51-4.74,25.56-5.57,51.13-11.13,77.12-14.4.45,0,1,.37,2.13.89-19.43,30.76-37.66,62.11-54.6,95.31A810.91,810.91,0,0,1,265.6,368.1Zm52.9,137.08c-1.63-3.43-1.36-6.1.22-9.43a1134.89,1134.89,0,0,1,85.73-149.47c3.63-5.35,8.51-5.28,13.42-5.54,27.72-1.44,55.44-2.62,82.14-3.84,28.52,1.27,56,2.59,83.42,3.64,6,.22,9.65,2.62,13.09,7.66A1108.89,1108.89,0,0,1,680.6,493.66c2.2,4.63,2.11,7.92-.05,12.47a1133.75,1133.75,0,0,1-84.41,147.22c-2.78,4.13-5.77,5.71-11,6.15-35.7,3.12-71.44,3.52-107.23,3.21-22-.19-44-1.94-66-3.29-3.54-.23-5-2.11-6.58-4.44A1093.44,1093.44,0,0,1,318.5,505.18Zm388.17,50.37c5.08,8.73,7.74,17.47,10.73,26,5.72,16.26,10.81,32.76,16.29,49.12,1,3,2,5.24-2.39,6.19-25.8,5.5-51.54,11.38-79.84,14.81C671.86,619.74,689.67,588.53,706.67,555.55Zm26.69-186.37C725.55,394,717.47,418.77,707,444.44c-17.25-33.23-35.36-64.31-56.17-96.51,17.66,3.07,33,5.61,48.35,8.47,10,1.89,20,4.37,30,6.4C733,363.57,734.62,365.21,733.36,369.18ZM495.94,232c1.62-1.68,2.89-4.44,6-1.15,18.46,19.67,36.38,39.8,53.64,62.25-37.59-1.06-73.89-1.13-111.85,0A733.27,733.27,0,0,1,495.94,232ZM242.3,168.4c1.91-13.52,5.26-26.74,11.37-39.12,10.09-20.39,21.24-27.47,47-27.61,20,.4,40.85,8.56,61.06,18.68,37.56,18.79,70.37,44.28,101.43,72.23,3.68,3.31,2.82,5.09,0,8.09a883,883,0,0,0-76.91,93c-2.9,4.06-6.78,4.89-11,5.31a844.28,844.28,0,0,0-116.13,20.12c-5,1.23-6.06-.07-7.09-4.78C241.42,266.13,235.36,217.67,242.3,168.4ZM222.87,617.92c-.86,3-.93,6.38-6.58,4.53-48.66-16-95.66-35.3-135.82-68-15.77-12.86-30.23-27.18-34.75-48.34-.42-1.94-.72-3.91-1-5.44,1.34-17.06,10-29.92,21-41.43,24.5-25.55,54.91-42.37,86.57-57.12,19.86-9.24,40.53-16.46,61.22-23.65,5.53-1.92,7.56-.6,9.17,5,11.05,38.21,25.17,75.3,41.36,111.62,1.58,3.55,1.9,6.61.25,10.34A889.6,889.6,0,0,0,222.87,617.92ZM464.76,807c-39.69,35.56-81.15,68.4-132.47,86-15.18,5.23-30.78,8.37-47.05,5.14-11.41-2.26-19.59-8.76-25.81-18.21-10.6-16.14-14.41-34.49-17.11-53.11A206.23,206.23,0,0,1,240.38,791c-.42-37.52,5.29-71.79,12-106,1.08-5.45,3.64-4.37,7.18-3.55q43.71,10.21,88.19,16.42c10.17,1.4,20.36,2.94,30.58,3.89,3.92.36,6.15,2.14,8.27,5a940.43,940.43,0,0,0,77.21,92.79C465.91,801.75,468.73,803.43,464.76,807Zm39.72-39.62c-2,2.23-3.57,5.37-7.23,1.43-18.15-19.55-35.88-39.43-53.11-61.74,37.68.84,73.83,1.34,112.09-.21-6.2,7.82-11.13,14.55-16.58,20.84C528.07,741,516.23,754.16,504.48,767.35ZM753,852.54c-11.88,41.52-33.29,53.54-75.18,42.26-39.05-10.53-72-32.26-103.72-56.26-12.77-9.66-24.85-20.15-36.84-30.77-3.81-3.37-3.52-5.2-.27-8.66A894.78,894.78,0,0,0,613.84,706c3.24-4.56,7.75-4.61,12-5.08,30.1-3.18,59.91-8.07,89.53-14.23,7.8-1.61,15.81-2.74,23.28-5.31,6.67-2.3,8.68-.3,10,6A580.86,580.86,0,0,1,760.77,790C760.82,804.22,759.84,828.69,753,852.54ZM937.32,537.22c-21.67,24.24-49,40.64-77.71,55-23.66,11.84-48.41,21-73.5,29.41-5,1.69-7.05,1.82-8.83-4.21a876.43,876.43,0,0,0-42-113.12c-1.57-3.46-1.27-6.27.19-9.58a908.76,908.76,0,0,0,41.44-112.41c.73-2.54.22-6.62,6.27-4.65,49.25,16,96.73,35.53,137.2,68.82,15.33,12.6,29,26.7,33.8,47,.51,2.2.74,4.48,1,6.23C953.84,514.8,946.75,526.65,937.32,537.22Z"/><path class="cls-1" d="M499.58,592.84c-51.78-.21-92.35-41.24-92.8-92.84-.44-50.66,42.63-94.25,96.24-92.95,49.34,1.2,89.9,43,89.66,94.25C592.46,552.06,550.78,593,499.58,592.84Z"/></g></svg>