<svg xmlns="http://www.w3.org/2000/svg" viewBox="0 0 1000 1000"><defs><style>.cls-1{fill:#0f131e;}</style></defs><g id="Layer_2" data-name="Layer 2"><path class="cls-1" d="M1000,773.47c-1.35,1.57-3.54,2.94-3.92,4.72C971.7,888.52,892.46,939.76,788.64,961.49c-75.71,15.85-148.19-.57-220.12-32.14,17.84-14.62,34.43-28.42,51.3-41.87,7.39-5.91,13.89.47,20.46,2.7,51.13,17.44,103.15,25.36,157,14.71,100.33-19.83,165.76-124.54,137.21-221-29.44-99.43-98-165.58-188.85-212.41C672.73,434,595.17,416.37,513.08,416.67c-10.56.05-16.89,2.59-23.49,11.65-26.24,36-72.75,41.21-104.35,12.93a69.24,69.24,0,0,1-2.34-101.46c30.77-30.15,77-27.66,104.72,7.33,8,10.15,16.46,10,26.72,10,121.08.14,232.46,30.86,329.13,104.69C922.26,522,981.69,595.25,996.91,696.24c.17,1,2,1.82,3.1,2.72Q1000,736.3,1000,773.47Z"/><path class="cls-1" d="M0,681.5c7.12-3,5-10.06,6.21-15.16,18.17-78.18,64-138,126.28-187.33,11.6-9.18,14.37-9.7,20.63,6.79,12.18,32.14,5.42,52-21.25,75-40.64,35-66.85,81-75,135.3-15.4,102.13,59.89,194.17,164.51,204.74C351.1,914,453.55,858.94,546.71,779.14c32.62-27.94,58.06-62,79.68-98.92,5.63-9.6,6.43-16.68-.19-27.14-23.64-37.24-10.59-81.2,28.07-99.79a71.25,71.25,0,0,1,97.32,37.17c15.67,37.83-4.05,79-45.26,92.49-10.59,3.46-17,8.57-22.31,18.41C600,856,465.73,938.39,292.13,960.8c-58.76,7.59-116.37-3.23-170.17-29.6C62,901.76,24.74,854.62,8.46,790.79c-2.24-8.78-1-18.86-8.47-26Z"/><path class="cls-1" d="M754.6,336.75c-44.75-1.49-66.66-20.16-73.54-65.35-7.61-49.84-34.09-94.39-71-131.13-43.17-43-94.51-56.06-154.43-43.39-103.17,21.8-153.62,94.34-178.75,186-32.26,117.59-14.13,231,44.48,338.22,5.9,10.77,13.53,12.48,24.84,13.26,42.44,2.92,70.32,35.56,67.19,76.79-2.89,38.12-38.08,66-79.1,62.56-38.28-3.16-70.7-39.15-62.06-78.12,5.8-26.12-3.68-43.49-13.7-64-68.1-139.44-82.08-282-17.67-426.19,39.36-88.1,105.73-149,204.26-168.14,95.18-18.47,171.32,16.85,231.13,88.63C727.28,187.07,747.91,260,754.6,336.75Z"/></g></svg>