<svg xmlns="http://www.w3.org/2000/svg" viewBox="0 0 1000 1000"><defs><style>.cls-1{fill:#0f131e;}</style></defs><g id="Layer_2" data-name="Layer 2"><path class="cls-1" d="M999.34,654.51c-2.19-19.74-10.26-36.93-23.21-51.75-28-32.08-64.89-44.64-106.12-46.45a204.71,204.71,0,0,0-94.75,18.58c-2.14,1-4.23,3.14-6.37-.74-11.68-21.07-21.28-42.65-21.59-67.43-.23-18.05,4.94-34.78,10.75-51.48,3.25-9.36.68-14.05-9.12-16.17C734.32,435.9,720,437.94,705.8,442c-4.67,1.33-7,4.38-8.66,9-4.57,12.71-6,26.28-11.44,38.74-8.85,20.23-19.26,39.65-30.15,58.83-8.5,15-17.21,29.83-26.43,45.83-6.56-13.14-12.33-24.76-14.8-38-4.6-24.67-.2-48,8.2-71,3.81-10.48,1.5-14.37-9.7-16.78-14.36-3.08-28.41-.86-42.31,3.06-5.16,1.46-7.55,4.94-8.67,9.91-2.26,10.12-4.69,20.25-8.82,29.78C529.39,566,505.31,620.57,480,674.53c-4.94,10.55-10.65,20.75-16.14,31.05-.8,1.5-1.75,3.87-3.77,3.46-2.77-.54-1.81-3.34-1.91-5.23a109.81,109.81,0,0,1,2.29-27.88c6.48-31.24,15.42-61.84,23.16-92.76,2.33-9.3-.61-14.63-9.32-18.6-8.29-3.76-15.81-2.21-23.48,4,1.6-12.25,2.38-22.8,1.12-33.48-2.57-21.71-18.4-33.92-39.05-29.81A81,81,0,0,0,393,511.8c-23.4,11.42-42.28,28.23-58.22,48.54-2,2.48-3.84,4.78-6.69,6.33q-45.85,25-91.58,50.09c-3.34,1.82-5.29,1.56-7.92-1.19-17.33-18.12-37.16-33.34-56.9-48.67-24.26-18.82-49-37.14-69.29-60.48-31-35.62-35.66-75-16.11-117.28C100.21,359,122.83,335.62,148,314.58c38.49-32.26,81.55-57.42,126.52-79.31,64.5-31.4,131.7-52.45,204.6-49.15,23.82,1.08,46.94,5.52,68,17.39,16.13,9.08,26.12,22.23,28.67,41.11,2.46,18.24-1.64,35.16-9,51.4-17.88,39.48-47.88,68.23-83.62,91.38-40.78,26.41-85.62,42-133.86,47.29-40.21,4.41-78.72,1.47-109-30.31-1.76-1.82-3.81-4-6.74-2.34s-3.21,4.47-2.7,7.48c1.44,8.19,5.43,15.11,10.75,21.28,16,18.63,36.57,29.77,60.37,34.69,31.51,6.5,63.16,5.25,94.71.14,42.87-6.94,84.43-18.47,121.15-42.34,59.52-38.7,102.61-89.56,111.3-162.83,4.49-37.95-6.72-71.18-37.78-95.51-34.31-26.81-74.7-36.11-117.26-38.45-13.39-1.23-26.81-.19-40.23-.53-25.24.3-50.36,1.3-75,7.87-61.73,16.5-119.62,42.11-174.84,73.89-48,27.64-92.75,59.63-129,102-27.21,31.78-52.19,64.87-55,109v21.86c2.17,9.26,1.56,18.93,5.27,28,10.34,25.37,27.48,45.95,46.53,64.82C69.14,550.7,88.48,565.76,108.39,580c24.34,17.39,49.22,34,73.41,51.6,8.32,6.06,8.19,7.59-1,12.31-37.39,19.17-72.89,41-104.63,68.89-22,19.34-38.19,41.78-44.37,70.6-5.84,27.22-2.38,52.79,15.69,75.07,5.64,7,12.4,12.81,21.82,13.83,8.25.91,16.49,2.17,24.85,1.73h23.33c11.72-.12,23.59-.28,34.75-3.9,32.07-10.41,58.88-29.13,79.18-55.79,35.19-46.27,44.08-98.2,29.59-154.2-3.73-14.37-4.23-14.43,8.5-21.85,9.79-5.71,19.26-12.11,29.94-16.5,1.23,3.36-.3,5.72-.79,8.2-4.83,24.72-10,49.33-6.58,74.84,3,22.73,9.81,43.91,21.87,63.61,14.36,23.43,48.36,22.56,61.82,5.65a148.14,148.14,0,0,0,13.84-20.67c9.17-16.55,17.25-33.62,22.56-51.82-5.23,18.68-3.51,37.16,4.07,54.7,7.38,17.05,25.81,21.21,41.18,10.74,7.92-5.39,14.07-12.42,19.37-20.12,13.45-19.53,23.79-40.88,34.82-61.78a1242.41,1242.41,0,0,0,56-122.36,203.08,203.08,0,0,0,23.44,66.77c3.49,6.24,2.33,10.84-1.63,16.31-12.5,17.32-26.72,33.22-40.32,49.61-8.14,9.81-16.6,19.39-23.26,30.28-7.65,12.48-4,25.62,8.55,30.56a44.63,44.63,0,0,0,18.4,2.72,136.78,136.78,0,0,0,54-14.13c23.34-11.32,41.74-27.39,48.91-53.52,5.46-19.94,1.84-39.2-5.29-57.94-2.41-6.29-2-11.15,1.83-16.63a653.76,653.76,0,0,0,35.88-58.5c4.41-8,7.92-16.58,13.93-25.22,4.31,21.53,10.25,41.17,19.86,59.45,3.33,6.34,2.83,10.81-2.51,15.72-13,12-25.15,24.9-34.24,40.31-9.21,15.61-16.84,31.73-16.12,50.51.73,19.13,16.1,31.1,34.77,26.53,20.17-4.94,38.82-13.24,55.12-26.44,28.81-23.36,40.82-47.29,30.11-83.88-3.43-11.72-3-11.95,9-15.61,1.25-.38,2.5-.72,3.75-1.06,29.19-7.89,58.69-8,88.19-2.6,25.52,4.66,49.22,13.67,67.3,33.46,22.71,24.84,28.48,61.12-7.13,84.13-2.38,1.53-4.79,3.15-6.34,5.7-3.47,5.75-.87,11.1,5.82,11.77a14.93,14.93,0,0,0,7.66-1.08c24.14-10.55,44-28.24,42.66-59.73C999.61,665.05,1000.61,659.74,999.34,654.51ZM214.26,746.12c-17.53,36.42-44.42,62.22-85,71.62a46.65,46.65,0,0,1-14.75.7c-12.9-1.14-20.24-9.62-20.6-23.85-.42-16.67,5.63-31.47,14.06-45.41,7.2-11.9,16.68-21.82,27.17-30.91,25.83-22.41,54.37-40.83,85-58.6C228.2,689.69,227.58,718.48,214.26,746.12ZM426.17,556.84c-5.94,30.65-16.88,59.74-28.07,88.73-7.56,19.54-14.74,39.28-24.25,58-2.59,5.11-5.29,10.14-9,14.51-6,7.07-10.6,6.49-14.28-2.17-4.76-11.22-5.41-23.16-5.19-35.18.05-43.79,16-82,42-116.35a57.15,57.15,0,0,1,25.1-19.17c3.93-1.52,8.12-3,11.86,0C428.24,548.31,426.94,552.84,426.17,556.84ZM562.64,724.3c8.82-9.85,17.27-18.94,25.34-28.35s15.84-19.18,23.77-28.84C616.4,686.86,584.65,724.81,562.64,724.3Zm148.5-33.92c-6.24,2-5.88-2-5-5.82a113.79,113.79,0,0,1,15.31-36.33,115.15,115.15,0,0,1,23.45-26.93C755.17,649.24,739.1,681.44,711.14,690.38Z"/></g></svg>