<svg xmlns="http://www.w3.org/2000/svg" viewBox="0 0 1000 1000"><defs><style>.cls-1{fill:#141414;}</style></defs><g id="Layer_2" data-name="Layer 2"><path class="cls-1" d="M243.65,499.94C319.33,434,397.14,380.15,478.46,331.15c12.16-7.32,23.58-12.9,38.14-3.73C674,426.47,826.66,530.88,931.05,690.13c21,32,44.86,69,23.63,106.3-22.06,38.75-66.36,24.47-101.34,21.45-92.89-8-177.06-45.84-259-86.82C469.54,668.63,351.61,595,243.65,499.94Z"/><path class="cls-1" d="M548.4,293.53c105.87-55.53,206.43-99.13,317-115,32.49-4.67,68.68-5,88.94,23,19.51,26.9,5.69,59-8.93,86.83-33.26,63.19-81.65,114.33-131,164.88-13.82,14.17-24.6,14.3-38.76,2C707.35,396.12,632.33,346.19,548.4,293.53Z"/><path class="cls-1" d="M452,292.56c-83.51,53-159,105-229.23,164.1-11.46,9.64-19.53,10.57-30.5-.38C133.65,397.77,74,340,44.63,259.78c-18.41-50.3-6.13-71.34,46.75-79.92,45-7.3,88.48,5.55,131,16.93C300.82,217.82,374.44,251.76,452,292.56Z"/><path class="cls-1" d="M343.32,636.83c89.3,58.82,176,112.83,269.91,153.75,16.73,7.29,18.93,16.83,13.92,32.18-16.18,49.52-33,98.91-66.65,139.81-41.64,50.7-84.58,50-123.8-2.86-49.51-66.78-70-145.41-84.56-225.37C346.76,704.73,336.56,675,343.32,636.83Z"/><path class="cls-1" d="M120.43,822.79c-82.34,2.67-103.94-30.43-66.82-104.43,33.59-67,85.55-119.5,138.45-171,4.95-4.83,8.8-11.83,18.83-9.25,21.11,5.45,73.64,66.54,76.66,89.66,5.36,41,10.18,82.16,17.58,122.82,3.47,19.1-1.8,28-19.64,34C231.64,802.55,178,820.89,120.43,822.79Z"/><path class="cls-1" d="M504.71,0c21.05,1.77,37.14,15.58,51.46,32,37.11,42.59,54.64,94.74,72.14,147.05,6,17.8-2.9,24.32-16.76,30.78-29.06,13.55-58.48,26.71-86.12,42.83-18.37,10.7-32.92,10.65-50.15-1.14-12.49-8.56-27.1-14.07-40.87-20.73-72.66-35.15-72.76-35.17-40.52-112C408.15,84.9,424.22,52,450.42,25.19,464.76,10.55,481-.22,504.71,0Z"/></g></svg>