<svg id="Layer_1" data-name="Layer 1" xmlns="http://www.w3.org/2000/svg" viewBox="0 0 1500 1500"><defs><style>.cls-1{fill:#1d1d1b;}</style></defs><path class="cls-1" d="M334,1369.77c-67.29,0-125.63-11.1-178.38-33.93-54.89-23.77-102.2-59.53-144.62-109.33L.33,1214,101.54,1065.7l18.27,22.06c61.32,74,126.59,108.48,205.4,108.48,130.33,0,214.54-88.36,214.54-225.11V161.74l-1.07-31.51H729.14V700.9l488-570.67h240.78L949,710.47l550.64,638.15H1261.06l-6.47-7.66L824.94,831.48l-95.8,108.67v32.74c0,64.67-10.23,123.33-30.39,174.36-19.36,49-47.86,91-84.71,125C544.77,1336,447.94,1369.77,334,1369.77Zm-279.31-159c72.52,78.92,161.73,115.81,279.31,115.81,220.4,0,352-132.24,352-353.74v-49L825.66,765.43l455.45,540.06h124.36L891.86,710.24l470.82-536.87H1237L686,817.72V173.37H582.89V971.13c0,160.45-103.55,268.25-257.68,268.25-50.74,0-98.21-12.78-141.09-38-27.52-16.18-53.47-37.48-78.79-64.73Z"/></svg>