<svg id="Layer_1" data-name="Layer 1" xmlns="http://www.w3.org/2000/svg" viewBox="0 0 1500 1500"><defs><style>.cls-1{fill:#1d1d1b;}</style></defs><path class="cls-1" d="M329.93,1379.06c-67.47,0-125.9-11.2-178.63-34.23-54.79-23.94-102.05-60-144.46-110.24L0,1226.49,93.66,1088l11.92,14.52C169.69,1180.61,238.12,1217,321,1217c137.62,0,226.55-94,226.55-239.61V145l-.81-24.08H724.53V721.35l508.76-600.41h224L945.91,709.31l554.09,648H1278.11L830.23,821.39l-105.7,121v36.78c0,65.45-10.22,124.74-30.39,176.23-19.26,49.19-47.61,91.41-84.26,125.48C540.79,1345.11,444,1379.06,329.93,1379.06ZM35.17,1224.52C111.42,1310.77,205.38,1351,329.93,1351c229.54,0,366.57-139,366.57-371.86v-47.3L830.71,778.25l460.51,551h147.93L908.91,709.16,1395.75,149H1246.28L696.5,797.79V149h-121V977.36c0,78-23.81,144.63-68.86,192.78-45.83,49-110,74.86-185.72,74.86-50.28,0-97.31-12.77-139.78-38-29.77-17.67-57.76-41.48-85.14-72.5Z"/></svg>